<svg width="606" height="593" viewBox="0 0 606 593" fill="none" xmlns="http://www.w3.org/2000/svg">
<path d="M168.796 404.9C88.3935 330.504 88.3935 209.885 168.796 135.489C249.198 61.0929 379.557 61.0929 459.959 135.489C540.361 209.885 540.361 330.504 459.959 404.9C379.557 479.296 249.198 479.296 168.796 404.9Z" fill="#F7F4EE"/>
<path opacity="0.22" d="M532.267 562.954C532.267 565.448 521.663 567.47 508.582 567.47C495.501 567.47 484.897 565.447 484.897 562.954C484.897 560.459 495.502 558.438 508.582 558.438C521.663 558.438 532.267 560.46 532.267 562.954Z" fill="#42301F"/>
<path d="M498.515 304.565C498.515 304.565 518.176 298.397 516.926 274.053C515.676 249.71 510.344 250.35 502.353 229.609C494.363 208.866 444.634 211.588 444.634 211.588C444.634 211.588 459.365 212.635 463.173 222.827C466.979 233.019 465.584 266.004 473.506 273.258C481.428 280.511 490.282 297.75 498.515 304.565Z" fill="#C6CC1E"/>
<path d="M470.399 268.098L486.75 263.212C486.75 263.212 516.176 267.171 515.335 287.028C510.813 300.694 498.516 304.565 498.516 304.565C490.282 297.75 481.43 280.511 473.508 273.257C472.258 272.115 471.242 270.331 470.399 268.098Z" fill="#42301F"/>
<path d="M519.251 411.76C519.251 411.76 518.395 406.693 522.568 398.476C526.741 390.259 534.124 387.387 536.37 386.695C538.617 386.002 559.695 388.08 559.695 388.08C559.695 388.08 552.526 393.723 541.077 402.534C529.629 411.347 519.251 411.76 519.251 411.76Z" fill="#C6CC1E"/>
<path d="M457.169 299.412C457.169 299.412 447.757 282.035 457.223 272.141L491.252 289.566C491.252 289.566 456.867 278.028 457.169 299.412Z" fill="#42301F"/>
<path d="M491.587 400.192C491.587 400.192 504.379 385.061 488.914 365.333C473.451 345.605 469.37 348.845 450.4 335.547C431.43 322.249 391.447 349.744 391.447 349.744C391.447 349.744 404.39 343.148 413.611 349.744C422.832 356.339 441.202 384.637 452.124 386.686C463.047 388.736 480.663 398.666 491.587 400.192Z" fill="#C6CC1E"/>
<path d="M512.268 460.56C507.986 431.451 491.8 374.709 430.813 339.822" stroke="#42301F" stroke-width="0.5" stroke-miterlimit="10"/>
<path d="M512.268 460.56C491.254 348.358 513.787 283.359 483.44 223.251" stroke="#42301F" stroke-width="0.5" stroke-miterlimit="10"/>
<path d="M527.18 339.822C527.18 339.822 534.076 344.657 548.033 327.889C561.991 311.12 564.297 301.566 574.568 294.463C584.84 287.36 575.425 267.541 597.68 267.892C597.68 267.892 568.316 266.85 546.322 274.337C524.328 281.823 520.644 300.55 517.219 308.799C513.794 317.048 527.18 339.822 527.18 339.822Z" fill="#C6CC1E"/>
<path d="M555.475 282.425C555.475 282.425 501.119 358.389 512.164 459.894" stroke="#42301F" stroke-width="0.5" stroke-miterlimit="10"/>
<path d="M505.152 316.379C505.152 316.379 509.885 281.155 497.388 268.615C484.894 256.077 459.725 266.371 455.588 274.337C455.588 274.337 469.426 270.331 505.152 316.379Z" fill="#C6CC1E"/>
<path d="M517.712 372.02C517.712 372.02 509.943 302.144 480.672 270.331" stroke="#42301F" stroke-width="0.5" stroke-miterlimit="10"/>
<path d="M510.717 428.445C510.717 428.445 512.434 415.367 533.079 395.075" stroke="#42301F" stroke-width="0.5" stroke-miterlimit="10"/>
<path d="M487.668 563.083L487.855 563.128C501.508 566.426 515.85 566.41 529.496 563.083L549.209 437.354H467.955L487.668 563.083Z" fill="#C47C39"/>
<path d="M468.055 437.354C468.055 439.294 486.244 440.867 508.682 440.867C531.121 440.867 549.31 439.294 549.31 437.354C549.31 435.413 531.121 433.84 508.682 433.84C486.244 433.84 468.055 435.413 468.055 437.354Z" fill="#42301F"/>
<path d="M367.7 506.011C368.003 506.016 368.31 505.986 368.614 505.922C369.94 505.638 370.998 504.715 371.383 503.507L408.547 386.825L401.306 384.85L366.032 495.6L247.595 375.934L242.029 380.652L364.979 504.878C365.688 505.595 366.677 505.996 367.7 506.011Z" fill="#5A733B"/>
<path d="M415.5 345.567L419.638 346.696L406.993 386.396L402.855 385.267L415.5 345.567Z" fill="#191919"/>
<path d="M452.086 342.046C452.086 342.046 454.575 334.291 449.872 334.4C445.168 334.509 436.115 336.909 424 335.273C411.884 333.637 379.207 331.687 383.003 338.452C386.8 345.216 407.782 343.906 410.704 344.858C413.626 345.809 425.15 349.603 430.229 348.419C437.516 346.719 453.023 344.416 452.086 342.046Z" fill="#C47C39"/>
<path d="M499.174 416.41L481.164 470.542L475.612 468.825L484.602 413.228" stroke="#121212" stroke-width="0.5" stroke-miterlimit="10"/>
<path d="M466.721 413.529L480.858 468.639L475.132 469.764L452.418 417.624" stroke="#121212" stroke-width="0.5" stroke-miterlimit="10"/>
<path d="M546.531 447.208L492.428 473.702L489.814 468.856L538.658 435.425" stroke="#121212" stroke-width="0.5" stroke-miterlimit="10"/>
<path d="M525.783 423.939L493.666 472.155L488.758 469.205L512.541 417.475" stroke="#121212" stroke-width="0.5" stroke-miterlimit="10"/>
<path d="M556.482 499.97L497.978 483.306L499.833 478.168L559.919 486.487" stroke="#121212" stroke-width="0.5" stroke-miterlimit="10"/>
<path d="M559.593 469.942L500.035 483.022L498.819 477.724L555.169 456.707" stroke="#121212" stroke-width="0.5" stroke-miterlimit="10"/>
<path d="M523.197 543.789L494.564 493.728L499.801 491.309L535.931 536.504" stroke="#121212" stroke-width="0.5" stroke-miterlimit="10"/>
<path d="M548.345 524.592L496.234 494.874L499.424 490.332L555.329 512.339" stroke="#121212" stroke-width="0.5" stroke-miterlimit="10"/>
<path d="M466.174 552.996L484.183 498.863L489.736 500.579L480.746 556.177" stroke="#121212" stroke-width="0.5" stroke-miterlimit="10"/>
<path d="M498.627 555.875L484.49 500.767L490.216 499.641L512.929 551.782" stroke="#121212" stroke-width="0.5" stroke-miterlimit="10"/>
<path d="M418.817 522.198L472.92 495.704L475.535 500.55L426.691 533.981" stroke="#121212" stroke-width="0.5" stroke-miterlimit="10"/>
<path d="M439.565 545.467L471.683 497.25L476.591 500.201L452.808 551.931" stroke="#121212" stroke-width="0.5" stroke-miterlimit="10"/>
<path d="M408.867 469.435L467.37 486.1L465.515 491.237L405.429 482.919" stroke="#121212" stroke-width="0.5" stroke-miterlimit="10"/>
<path d="M405.754 499.464L465.312 486.384L466.529 491.682L410.18 512.699" stroke="#121212" stroke-width="0.5" stroke-miterlimit="10"/>
<path d="M442.152 425.616L470.785 475.677L465.547 478.097L429.418 432.902" stroke="#121212" stroke-width="0.5" stroke-miterlimit="10"/>
<path d="M417.004 444.814L469.114 474.532L465.925 479.074L410.018 457.068" stroke="#121212" stroke-width="0.5" stroke-miterlimit="10"/>
<path d="M211.979 412.013L193.969 466.147L188.417 464.43L197.408 408.833" stroke="#121212" stroke-width="0.5" stroke-miterlimit="10"/>
<path d="M179.526 409.134L193.663 464.243L187.937 465.369L165.223 413.228" stroke="#121212" stroke-width="0.5" stroke-miterlimit="10"/>
<path d="M259.336 442.811L205.233 469.306L202.619 464.46L251.463 431.029" stroke="#121212" stroke-width="0.5" stroke-miterlimit="10"/>
<path d="M238.589 419.542L206.471 467.76L201.563 464.809L225.346 413.08" stroke="#121212" stroke-width="0.5" stroke-miterlimit="10"/>
<path d="M269.287 495.575L210.784 478.911L212.638 473.773L272.724 482.091" stroke="#121212" stroke-width="0.5" stroke-miterlimit="10"/>
<path d="M272.398 465.545L212.84 478.627L211.625 473.328L267.974 452.311" stroke="#121212" stroke-width="0.5" stroke-miterlimit="10"/>
<path d="M236.002 539.394L207.369 489.333L212.606 486.913L248.736 532.108" stroke="#121212" stroke-width="0.5" stroke-miterlimit="10"/>
<path d="M261.15 520.196L209.04 490.478L212.229 485.936L268.135 507.942" stroke="#121212" stroke-width="0.5" stroke-miterlimit="10"/>
<path d="M178.979 548.6L196.989 494.468L202.541 496.184L193.551 551.782" stroke="#121212" stroke-width="0.5" stroke-miterlimit="10"/>
<path d="M211.433 551.48L197.296 496.372L203.021 495.246L225.736 547.386" stroke="#121212" stroke-width="0.5" stroke-miterlimit="10"/>
<path d="M131.623 517.802L185.725 491.308L188.34 496.155L139.496 529.585" stroke="#121212" stroke-width="0.5" stroke-miterlimit="10"/>
<path d="M152.37 541.071L184.487 492.855L189.396 495.806L165.613 547.535" stroke="#121212" stroke-width="0.5" stroke-miterlimit="10"/>
<path d="M121.672 465.04L180.175 481.704L178.32 486.842L118.234 478.523" stroke="#121212" stroke-width="0.5" stroke-miterlimit="10"/>
<path d="M118.561 495.068L178.118 481.988L179.334 487.287L122.985 508.303" stroke="#121212" stroke-width="0.5" stroke-miterlimit="10"/>
<path d="M154.957 421.221L183.59 471.282L178.352 473.701L142.223 428.506" stroke="#121212" stroke-width="0.5" stroke-miterlimit="10"/>
<path d="M129.809 440.418L181.918 470.136L178.73 474.678L122.823 452.671" stroke="#121212" stroke-width="0.5" stroke-miterlimit="10"/>
<path d="M481.831 568.276C530.007 569.014 569.85 533.347 570.647 488.771C571.444 444.193 532.897 407.327 484.72 406.59C436.544 405.852 396.701 441.52 395.905 486.097C395.107 530.673 433.653 567.538 481.831 568.276ZM484.445 422.054C523.406 422.65 554.579 452.464 553.934 488.514C553.29 524.565 521.068 553.409 482.108 552.813C443.147 552.216 411.973 522.402 412.618 486.352C413.262 450.301 445.484 421.457 484.445 422.054Z" fill="#191919"/>
<path d="M194.636 563.881C242.812 564.619 282.656 528.952 283.452 484.376C284.249 439.798 245.702 402.932 197.526 402.195C149.349 401.457 109.506 437.124 108.71 481.702C107.914 526.277 146.46 563.143 194.636 563.881ZM197.25 417.658C236.211 418.254 267.384 448.068 266.74 484.118C266.095 520.169 233.873 549.013 194.913 548.416C155.952 547.82 124.779 518.006 125.423 481.956C126.067 445.905 158.289 417.061 197.25 417.658Z" fill="#191919"/>
<path d="M368.151 485.671C376.871 485.804 383.823 492.454 383.678 500.523C383.535 508.591 376.348 515.024 367.628 514.89C358.908 514.756 351.955 508.107 352.1 500.039C352.245 491.97 359.431 485.537 368.151 485.671ZM368.075 489.889C367.644 489.882 367.22 489.903 366.802 489.941C366.716 492.341 366.677 498.998 368.912 498.706C371.115 498.419 373.881 493.877 374.861 492.147C372.993 490.773 370.646 489.928 368.075 489.889ZM376.549 506.889C378.113 505.136 379.076 502.902 379.12 500.453C379.122 500.304 379.108 500.161 379.104 500.014C376.021 499.973 370.373 500.148 370.653 501.988C370.911 503.677 374.322 505.721 376.549 506.889ZM367.705 510.671C368.228 510.679 368.739 510.642 369.244 510.585C369.233 507.657 368.914 503.361 367.107 503.596C365.292 503.833 363.097 506.955 361.832 509.017C363.529 510.029 365.537 510.639 367.705 510.671ZM356.872 502.289C359.946 502.33 365.647 502.163 365.365 500.315C365.057 498.295 360.241 495.767 358.332 494.838C357.308 496.374 356.694 498.171 356.659 500.107C356.646 500.856 356.723 501.584 356.872 502.289Z" fill="#191919"/>
<path d="M358.35 522.607H337.467C335.791 522.607 334.432 521.349 334.432 519.798V515.073C334.432 513.521 335.791 512.264 337.467 512.264H358.35C360.027 512.264 361.386 513.521 361.386 515.073V519.798C361.386 521.348 360.027 522.607 358.35 522.607Z" fill="#5E5E5E"/>
<path d="M347.168 515.321L367.462 501.259" stroke="#5E5E5E" stroke-width="4" stroke-miterlimit="10" stroke-linecap="round"/>
<path d="M482.809 467.257C493.42 467.42 501.881 475.511 501.706 485.331C501.53 495.149 492.786 502.978 482.173 502.815C471.561 502.653 463.101 494.562 463.277 484.742C463.452 474.923 472.197 467.095 482.809 467.257ZM485.41 471.838C484.508 475.522 483.483 481.29 485.891 481.473C488.097 481.64 491.493 478.717 493.746 476.486C491.665 474.146 488.75 472.467 485.41 471.838ZM497.066 485.269C497.077 484.673 497.032 484.091 496.961 483.516C492.896 483.858 486.64 484.74 487.196 486.917C487.708 488.913 491.775 491.003 494.766 492.296C496.173 490.26 497.02 487.861 497.066 485.269ZM482.251 498.531C484.492 498.565 486.617 498.116 488.528 497.308C486.922 493.837 484.074 488.581 482.005 489.746C480.108 490.814 479.217 495.05 478.813 498.082C479.916 498.349 481.062 498.513 482.251 498.531ZM479.894 480.939C480.748 479.048 478.791 475.155 477.194 472.484C474.074 473.612 471.47 475.704 469.824 478.374C473.329 480.309 478.961 483.006 479.894 480.939ZM471.736 494.129C474.808 491.642 479.328 487.513 477.493 486.053C475.811 484.716 471.195 485.237 467.956 485.817C468.149 489.009 469.543 491.906 471.736 494.129Z" fill="#191919"/>
<path d="M482.518 484.016C483.419 484.03 484.139 484.717 484.125 485.552C484.109 486.386 483.367 487.052 482.464 487.039C481.563 487.024 480.844 486.338 480.858 485.503C480.873 484.667 481.617 484.002 482.518 484.016Z" fill="#5E5E5E"/>
<path d="M196.931 462.557C207.543 462.72 216.003 470.811 215.827 480.631C215.652 490.449 206.907 498.278 196.295 498.116C185.682 497.953 177.223 489.862 177.398 480.042C177.575 470.223 186.32 462.395 196.931 462.557ZM199.533 467.139C198.631 470.822 197.606 476.59 200.014 476.773C202.22 476.94 205.616 474.018 207.869 471.786C205.788 469.446 202.873 467.767 199.533 467.139ZM211.189 480.569C211.199 479.974 211.154 479.391 211.084 478.816C207.019 479.159 200.761 480.04 201.319 482.217C201.831 484.213 205.898 486.303 208.889 487.596C210.296 485.561 211.143 483.161 211.189 480.569ZM196.373 493.831C198.614 493.865 200.738 493.416 202.65 492.608C201.043 489.137 198.196 483.881 196.127 485.046C194.23 486.115 193.339 490.351 192.935 493.384C194.039 493.65 195.185 493.813 196.373 493.831ZM194.015 476.239C194.869 474.348 192.913 470.455 191.316 467.783C188.195 468.911 185.591 471.003 183.945 473.674C187.452 475.609 193.083 478.306 194.015 476.239ZM185.858 489.429C188.93 486.943 193.45 482.813 191.614 481.353C189.934 480.016 185.317 480.537 182.076 481.118C182.272 484.309 183.665 487.206 185.858 489.429Z" fill="#191919"/>
<path d="M196.641 479.316C197.544 479.331 198.261 480.017 198.247 480.853C198.232 481.686 197.49 482.352 196.587 482.339C195.686 482.325 194.967 481.638 194.981 480.803C194.995 479.968 195.738 479.302 196.641 479.316Z" fill="#5E5E5E"/>
<path d="M367.411 499.039L466.802 486.059L476.141 468.804L397.525 406.399L251.468 365.923L253.634 359.232L401.224 400.133L483.732 464.722C485.204 465.874 485.644 467.803 484.799 469.407L473.817 490.276L473.803 490.272C473.353 491.47 472.229 492.404 470.779 492.594L368.287 505.979C368.087 506.005 367.888 506.016 367.692 506.014C365.73 505.984 364.048 504.539 363.986 502.613C363.93 500.806 365.478 499.291 367.411 499.039Z" fill="#5A733B"/>
<path d="M196.196 484.355C197.643 484.378 199.038 483.624 199.686 482.329L245.767 390.187L245.822 390.046L259.986 353.831C260.695 352.018 259.681 350.015 257.722 349.359C255.762 348.703 253.598 349.641 252.889 351.454L238.782 387.527L192.837 479.397C191.962 481.147 192.786 483.223 194.677 484.033C195.168 484.244 195.686 484.348 196.196 484.355Z" fill="#5A733B"/>
<path d="M259.774 358.757L268.056 339.944C269.17 337.414 267.878 334.526 265.158 333.465L247.747 326.674L243.557 335.868L256.059 340.745L249.786 354.993L259.774 358.757Z" fill="#191919"/>
<path d="M238.693 330.387C238.621 334.408 242.086 337.721 246.431 337.789C250.777 337.855 254.358 334.65 254.43 330.629C254.501 326.608 251.036 323.294 246.691 323.227C242.345 323.16 238.765 326.366 238.693 330.387Z" fill="#191919"/>
<path opacity="0.22" d="M527.355 567.71C527.301 569.983 442.902 570.115 338.844 568.006C234.787 565.897 150.475 562.345 150.529 560.072C150.583 557.799 234.982 557.668 339.039 559.777C443.097 561.886 527.409 565.439 527.355 567.71Z" fill="#42301F"/>
<path opacity="0.22" d="M186.558 582.733C186.558 585.005 162.1 586.849 131.928 586.849C101.756 586.849 77.2983 585.007 77.2983 582.733C77.2983 580.459 101.756 578.618 131.928 578.618C162.1 578.618 186.558 580.46 186.558 582.733Z" fill="#42301F"/>
<path d="M124.52 352.371C124.52 352.371 136.231 379.854 145.396 389.663C154.561 399.47 166.782 444.279 124.52 438.866C124.52 438.866 108.734 450.944 94.4771 440.871C94.4771 440.871 68.509 439.255 69.5269 426.796C70.5448 414.337 85.3121 382.607 99.5692 367.41C113.826 352.215 113.826 352.215 113.826 352.215L124.52 352.371Z" fill="#5A733B"/>
<path d="M124.204 353.296C124.204 353.296 128.03 333.264 124.204 330.103C120.379 326.943 122.673 333.726 116.171 334.583C109.667 335.439 107.755 331.899 104.695 336.147C101.634 340.395 115.299 354.65 115.299 354.65L124.204 353.296Z" fill="#5A733B"/>
<path d="M121.639 356.778C121.639 356.778 128.731 393.193 119.704 395.617C110.678 398.042 119.059 354.65 119.059 354.65C119.059 354.65 115.788 362.15 113.548 360.658C111.309 359.167 117.797 353.298 117.797 353.298C117.797 353.298 115.605 350.464 115.075 347.183" stroke="#191919" stroke-width="0.5" stroke-miterlimit="10" stroke-linecap="round" stroke-linejoin="round"/>
<path d="M178.365 573.165H80.7752C78.1382 573.165 75.9536 571.269 75.7857 568.834L64.5759 407.003C64.3913 404.336 66.6784 402.08 69.5654 402.08H189.575C192.462 402.08 194.749 404.336 194.564 407.003L183.354 568.834C183.187 571.27 181.003 573.165 178.365 573.165Z" fill="#C6CC1E"/>
<path d="M197.197 412.359H61.9439C59.7799 412.359 58.0261 410.736 58.0261 408.734V401.062C58.0261 399.06 59.7799 397.437 61.9439 397.437H197.197C199.361 397.437 201.115 399.06 201.115 401.062V408.734C201.115 410.736 199.361 412.359 197.197 412.359Z" fill="#C6CC1E"/>
<path d="M61.944 412.359H197.198" stroke="#191919" stroke-width="0.5" stroke-miterlimit="10" stroke-linecap="round"/>
<path d="M133.267 480.786L151.989 470.938L145.347 480.017L133.267 480.786Z" fill="#5A733B"/>
<path d="M138.504 456.384L121.386 455.872L136.373 479.189L148.983 472.689L138.504 456.384Z" fill="#5A733B"/>
<path d="M128.267 466.688L127.375 465.069L131.992 455.767L128.267 466.688Z" fill="#C6CC1E"/>
<path d="M115.82 455.705C115.634 455.853 115.469 456.025 115.362 456.241L105.756 475.619C105.33 476.478 105.759 477.53 106.711 477.97L116.763 482.609C117.716 483.049 118.834 482.71 119.259 481.851L131.929 456.187L115.82 455.705Z" fill="#5A733B"/>
<path d="M137.241 501.136L138.356 521.526L132.668 511.315L137.241 501.136Z" fill="#5A733B"/>
<path d="M158.059 518.376L166.056 504.806L137.392 504.499L138.016 518.161L158.059 518.376Z" fill="#5A733B"/>
<path d="M168.657 500.393C168.598 500.163 168.507 499.939 168.35 499.737L154.208 481.639C153.581 480.837 152.397 480.622 151.561 481.159L142.756 486.815C141.921 487.351 141.752 488.436 142.378 489.238L161.131 513.163L168.657 500.393Z" fill="#5A733B"/>
<path d="M154.482 504.681L152.808 502.545L166.056 504.806L154.482 504.681Z" fill="#C6CC1E"/>
<path d="M118.221 493.733L99.736 481.691L111.784 483.882L118.221 493.733Z" fill="#5A733B"/>
<path d="M91.7734 498.429L99.318 512.985L115.19 491.722L102.872 483.562L91.7734 498.429Z" fill="#5A733B"/>
<path d="M101.772 517.717C102.005 517.818 102.253 517.891 102.514 517.902L126.079 518.744C127.122 518.782 127.955 518.03 127.94 517.067L127.773 506.904C127.758 505.94 126.899 505.129 125.854 505.092L94.6708 504.022L101.772 517.717Z" fill="#5A733B"/>
<path d="M105.727 504.399L108.512 504.495L99.318 512.985L105.727 504.399Z" fill="#C6CC1E"/>
<path d="M165.342 583.797H168.417C171.088 583.797 173.255 581.792 173.255 579.32V567.01C173.255 564.538 171.088 562.534 168.417 562.534H165.342C162.671 562.534 160.504 564.538 160.504 567.01V579.32C160.504 581.792 162.671 583.797 165.342 583.797Z" fill="#42301F"/>
<path d="M89.2596 583.797H92.3338C95.0055 583.797 97.1721 581.792 97.1721 579.32V567.01C97.1721 564.538 95.0055 562.534 92.3338 562.534H89.2596C86.5879 562.534 84.4213 564.538 84.4213 567.01V579.32C84.4226 581.792 86.5879 583.797 89.2596 583.797Z" fill="#42301F"/>
<path d="M15.3228 288.514L71.1001 402.527C71.9923 404.35 71.118 406.499 69.1463 407.324L61.594 410.488C59.6236 411.314 57.3019 410.505 56.4096 408.68L0.63237 294.668C-0.259903 292.845 0.614441 290.697 2.58616 289.871L10.1384 286.708C12.1101 285.882 14.4306 286.691 15.3228 288.514Z" fill="#C6CC1E"/>
<path opacity="0.22" d="M297.592 592.028C245.618 592.028 203.484 587.7 203.484 582.362C203.484 577.023 245.618 572.695 297.592 572.695C349.566 572.695 391.7 577.023 391.7 582.362C391.7 587.7 349.566 592.028 297.592 592.028Z" fill="#42301F"/>
<path d="M330.551 326.838C330.551 326.838 330.276 457.122 347.207 463.793C347.207 463.793 357.912 523.758 350.662 568.815C350.662 568.815 358.726 573.887 371.088 566.629C371.088 566.629 401.773 490.392 380.142 448.362C380.142 448.362 398.047 343.37 382.881 318.685C367.716 293.998 330.551 326.838 330.551 326.838Z" fill="#FFC2A8"/>
<path d="M384.444 519.59C384.444 519.59 362.091 522.958 352.918 519.59C352.918 519.59 353.152 562.588 350.662 568.814L371.048 566.643C371.048 566.643 381.665 539.266 384.444 519.59Z" fill="white"/>
<path d="M381.993 530.388C381.993 530.388 368.852 534.266 353.244 530.388" stroke="#191919" stroke-width="0.5" stroke-miterlimit="10" stroke-linecap="round"/>
<path d="M380.14 520.14L378.501 531.251" stroke="#191919" stroke-width="0.5" stroke-miterlimit="10" stroke-linecap="round"/>
<path d="M371.333 520.9L370.57 531.886" stroke="#191919" stroke-width="0.5" stroke-miterlimit="10" stroke-linecap="round"/>
<path d="M361.823 521.016L362.336 531.886" stroke="#191919" stroke-width="0.5" stroke-miterlimit="10" stroke-linecap="round"/>
<path d="M354.217 519.997L354.663 530.388" stroke="#191919" stroke-width="0.5" stroke-miterlimit="10" stroke-linecap="round"/>
<path d="M268.119 436.789C275.091 415.798 274.942 361.997 299.974 310.132L366.452 317.089C366.452 317.089 352.041 365.988 302.215 446.323C302.215 446.323 301.259 468.748 294.785 483.37C273.895 530.548 269.438 540.006 259.537 562.171C255.453 562.935 253.674 568.082 242.538 565.216C242.398 531.03 252.585 483.569 268.119 436.789Z" fill="#FFC2A8"/>
<path d="M279.298 518.202C279.298 518.202 257.895 517.424 248.431 510.898C248.431 510.898 241.746 543.477 242.537 567.27L258.236 564.752C258.236 564.752 274.405 529.168 279.298 518.202Z" fill="white"/>
<path d="M274.619 528.603C274.619 528.603 256.422 530.01 246.415 523.117" stroke="#191919" stroke-width="0.5" stroke-miterlimit="10" stroke-linecap="round"/>
<path d="M273.825 518.011L268.89 528.722" stroke="#191919" stroke-width="0.5" stroke-miterlimit="10" stroke-linecap="round"/>
<path d="M264.942 516.826L261.555 528.001" stroke="#191919" stroke-width="0.5" stroke-miterlimit="10" stroke-linecap="round"/>
<path d="M256.508 514.668L253.876 526.548" stroke="#191919" stroke-width="0.5" stroke-miterlimit="10" stroke-linecap="round"/>
<path d="M249.452 511.857L247.811 523.988" stroke="#191919" stroke-width="0.5" stroke-miterlimit="10" stroke-linecap="round"/>
<path d="M260.05 561.552C260.05 561.552 266.367 575.478 264.464 581.179L207.492 582.344C207.492 582.344 204.436 570.001 237.82 561.903L260.05 561.552Z" fill="#C47C39"/>
<path d="M248.622 562.945L252.921 557.141C252.921 557.141 244.506 552.696 238.111 555.521L237.464 562.098L248.622 562.945Z" fill="#C47C39"/>
<path d="M241.746 564.862C237.71 561.776 232.404 563.343 232.404 563.343" stroke="#191919" stroke-width="0.5" stroke-miterlimit="10" stroke-linecap="round"/>
<path d="M228.298 565.184C228.298 565.184 233.763 563.873 237.464 566.543" stroke="#191919" stroke-width="0.5" stroke-miterlimit="10" stroke-linecap="round"/>
<path d="M263.137 569.768C263.137 569.768 251.816 571.033 251.816 578.021" stroke="#191919" stroke-width="0.5" stroke-miterlimit="10" stroke-linecap="round"/>
<path d="M207.997 578.684L264.822 578.021" stroke="#191919" stroke-width="0.5" stroke-miterlimit="10" stroke-linecap="round"/>
<path d="M361.55 279.27C361.55 279.27 384.134 312.076 386.335 327.67L289.955 334.473C289.955 334.473 290.4 316.531 300.315 287.856C300.315 287.856 330.474 296.195 361.55 279.27Z" fill="#42301F"/>
<path d="M370.096 194.337C373.499 195.528 376.974 197.18 378.875 200.052C391.401 218.971 411.066 279.351 411.066 279.351L374.167 272.984L369.171 234.681C369.171 234.681 338.397 208.945 370.096 194.337Z" fill="#FFC2A8"/>
<path d="M286.349 193.004C286.349 193.004 274.471 204.833 273.75 222.814C273.029 240.795 263.711 271.519 263.711 271.519L220.258 298.23C220.258 298.23 233.084 302.993 236.416 314.038L286.757 291.236C288.572 290.413 289.812 288.793 290.048 286.935L298.151 223.007L286.349 193.004Z" fill="#FFC2A8"/>
<path d="M262.587 254.659C262.587 254.659 270.761 268.991 290.545 266.568C310.33 264.145 290.545 191.733 290.545 191.733L287.738 191.735C287.163 191.798 286.422 192.182 285.706 192.652C284.328 193.555 283.151 194.68 282.149 195.938C277.509 201.763 266.2 217.187 262.587 254.659Z" fill="#5A733B"/>
<path d="M287.067 191.876C287.067 191.876 325.999 165.757 377.912 198.479L371.583 249.241C371.583 249.241 370.494 265.633 357.996 283.905C357.996 283.905 332.04 308.229 300.314 287.856C300.314 287.856 282.048 251.938 283.971 236.583L287.067 191.876Z" fill="#5A733B"/>
<path d="M391.419 442.871C391.035 403.01 407.998 371.496 377.365 305.206L293.962 309.489C293.962 309.489 264.999 426 262.587 452.467C262.587 452.467 292.739 465.062 303.602 460.809C311.51 457.714 330.804 396.894 330.804 396.894C330.804 396.894 336.559 443.725 339.15 457.234C341.739 470.745 391.655 467.269 391.419 442.871Z" fill="#42301F"/>
<path d="M330.804 396.895L318.736 363.506L304.832 349.996" stroke="#C47C39" stroke-width="0.5" stroke-miterlimit="10"/>
<path d="M345.984 567.04L371.048 566.644C371.048 566.644 374.521 570.76 377.066 589.121L328.391 589.89C328.391 589.89 326.867 579.041 339.579 574.658L345.984 567.04Z" fill="#C47C39"/>
<path d="M359.151 569.204L362.144 562.676C362.144 562.676 356.037 558.123 344.629 561.344L344.774 569.204H359.151Z" fill="#C47C39"/>
<path d="M328.75 585.441H362.018L376.396 584.723" stroke="#191919" stroke-width="0.5" stroke-miterlimit="10" stroke-linecap="round"/>
<path d="M374.662 576.249C374.662 576.249 365.041 575.744 363.907 585.082" stroke="#191919" stroke-width="0.5" stroke-miterlimit="10" stroke-linecap="round"/>
<path d="M340.681 573.346C340.681 573.346 348.918 571.101 352.573 574.949" stroke="#191919" stroke-width="0.5" stroke-miterlimit="10" stroke-linecap="round"/>
<path d="M343.748 569.699C343.748 569.699 351.823 567.778 355.213 571.509" stroke="#191919" stroke-width="0.5" stroke-miterlimit="10" stroke-linecap="round"/>
<path d="M377.912 198.479C377.912 198.479 390.219 207.6 406.531 255.395C406.531 255.395 393.636 259.378 369.114 260.715L370.851 246.42L366.543 231.326C365.066 219.931 364.292 202.439 376.125 198.998L377.912 198.479Z" fill="#5A733B"/>
<mask id="mask0_9_11" style="mask-type:luminance" maskUnits="userSpaceOnUse" x="262" y="182" width="145" height="114">
<path d="M406.531 255.395C390.219 207.6 377.912 198.479 377.912 198.479C325.998 165.757 287.067 191.876 287.067 191.876L287.063 191.925C286.632 192.093 286.166 192.351 285.704 192.652C284.327 193.555 283.149 194.68 282.148 195.938C277.507 201.762 266.2 217.187 262.586 254.658C262.586 254.658 270.76 268.99 290.544 266.567C290.649 266.554 290.745 266.528 290.848 266.511C295.333 278.057 300.314 287.855 300.314 287.855C332.04 308.228 357.996 283.903 357.996 283.903C363.929 275.23 367.288 266.983 369.183 260.709C393.659 259.369 406.531 255.395 406.531 255.395Z" fill="white"/>
</mask>
<g mask="url(#mask0_9_11)">
<path d="M284.58 183.938C284.58 183.938 319.409 193.294 371.87 180.035" stroke="#C6CC1E" stroke-width="0.5" stroke-miterlimit="10" stroke-linecap="round"/>
<path d="M269.756 193.482C269.756 193.482 314.513 207.458 383.579 192.921" stroke="#C6CC1E" stroke-width="0.5" stroke-miterlimit="10" stroke-linecap="round"/>
<path d="M263.783 208.105C263.783 208.105 314.549 222.319 392.665 208.142" stroke="#C6CC1E" stroke-width="0.5" stroke-miterlimit="10" stroke-linecap="round"/>
<path d="M256.337 226.324C256.337 226.324 313.704 238.509 400.111 221.241" stroke="#C6CC1E" stroke-width="0.5" stroke-miterlimit="10" stroke-linecap="round"/>
<path d="M261.355 243.308C261.355 243.308 317.702 266.424 405.399 240.329" stroke="#C6CC1E" stroke-width="0.5" stroke-miterlimit="10" stroke-linecap="round"/>
<path d="M253.905 263.337C253.905 263.337 310.252 286.452 397.95 260.357" stroke="#C6CC1E" stroke-width="0.5" stroke-miterlimit="10" stroke-linecap="round"/>
</g>
<path d="M279.298 221.66L283.553 233.785C283.553 233.785 271.129 257.92 289.955 261.179L290.545 266.568" stroke="#191919" stroke-width="0.5" stroke-miterlimit="10" stroke-linecap="round"/>
<path d="M362.991 229.288L367.451 246.541L369.183 260.71" stroke="#191919" stroke-width="0.5" stroke-miterlimit="10" stroke-linecap="round"/>
<path d="M263.713 271.518C263.713 271.518 271.986 271.208 276.939 278.627" stroke="#383838" stroke-miterlimit="10"/>
<path d="M309.939 160.842C309.939 160.842 302.045 167.404 291.173 190.811C278.566 217.954 284.147 221.816 284.147 221.816C284.147 221.816 293.263 213.659 303.307 196.526C313.352 179.393 309.939 160.842 309.939 160.842Z" fill="#42301F"/>
<path d="M312.17 174.802L313.928 186.474C313.928 186.474 304.546 197.476 308.871 199.811C313.197 202.145 322.676 200.137 337.818 185.664L335.715 152.328L312.17 174.802Z" fill="#FFC2A8"/>
<path d="M329.259 110.185C294.121 101.78 290.345 139.751 290.172 140.689C286.948 158.088 296.123 179.58 304.725 180.1C330.79 181.677 335.801 157.955 335.801 157.955C336.43 156.554 347.381 142.738 347.791 141.227C352.6 123.504 349.793 115.098 329.259 110.185Z" fill="#FFC2A8"/>
<path d="M302.524 120.076C302.524 120.076 304.943 147.374 336.095 149.799L336.809 169.828C336.119 177.558 346.53 175.022 354.617 164.836C370.223 145.179 361.36 116.805 337.024 107.431C317.758 100.01 290.879 118.183 286.003 125.399C277.835 137.486 291.09 138.038 290.172 140.689C290.172 140.689 293.308 124.689 302.524 120.076Z" fill="#42301F"/>
<path d="M345.637 159.63C344.301 163.786 339.928 166.25 335.87 165.134C331.813 164.018 329.606 159.742 330.942 155.586C332.278 151.429 336.651 148.966 340.709 150.082C344.766 151.198 346.972 155.473 345.637 159.63Z" fill="#FFC2A8"/>
<path d="M302.524 120.076C302.524 120.076 300.897 132.854 310.001 140.04" stroke="#42301F" stroke-width="0.5" stroke-miterlimit="10"/>
<path d="M359.706 139.847C359.706 139.847 367.266 176.481 338.16 173.128" stroke="#42301F" stroke-width="0.5" stroke-miterlimit="10"/>
<path d="M296.826 143.259C297.587 143.229 298.015 142.419 297.61 141.783C297.081 140.951 296.117 140.056 294.416 140.04C291.227 140.012 290.371 141.8 290.877 142.722C291.236 143.38 294.804 143.337 296.826 143.259Z" fill="#42301F"/>
<path d="M319.845 146.107C320.577 146.317 321.266 145.689 321.103 144.966C320.889 144.019 320.285 142.877 318.676 142.331C315.661 141.308 314.226 142.721 314.386 143.745C314.499 144.476 317.9 145.55 319.845 146.107Z" fill="#42301F"/>
<path d="M316.277 162.002C316.277 162.002 312.785 165.452 306.151 163.889" stroke="#191919" stroke-width="0.5" stroke-miterlimit="10" stroke-linecap="round"/>
<path d="M314.648 150.524C314.543 151.587 315.071 152.5 315.829 152.567C316.585 152.632 317.284 151.824 317.389 150.763C317.494 149.701 316.966 148.786 316.208 148.72C315.452 148.655 314.753 149.463 314.648 150.524Z" fill="#191919"/>
<path d="M293.863 149.493C293.77 150.434 294.237 151.243 294.908 151.301C295.578 151.359 296.196 150.644 296.29 149.703C296.382 148.763 295.915 147.954 295.245 147.896C294.574 147.837 293.956 148.553 293.863 149.493Z" fill="#191919"/>
<path d="M300.425 149.85C300.425 149.85 300.714 151.981 297.888 152.426C296.237 152.686 298.587 158.007 301.363 157.212" fill="#FFC2A8"/>
<path d="M300.425 149.85C300.425 149.85 300.714 151.981 297.888 152.426C296.237 152.686 298.587 158.007 301.363 157.212" stroke="#191919" stroke-width="0.5" stroke-miterlimit="10" stroke-linecap="round"/>
<path d="M318.145 149.598C318.145 149.598 316.312 148.072 313.049 149.036" stroke="#191919" stroke-width="0.5" stroke-miterlimit="10" stroke-linecap="round"/>
<path d="M296.538 148.525C296.538 148.525 295.104 147.044 292.459 148.075" stroke="#191919" stroke-width="0.5" stroke-miterlimit="10" stroke-linecap="round"/>
<path d="M339.678 155.351C339.678 155.351 337.148 156.172 335.582 158.63C335.582 158.63 338.025 158.624 339.425 159.886" stroke="#191919" stroke-width="0.5" stroke-miterlimit="10" stroke-linecap="round" stroke-linejoin="round"/>
<path d="M310.794 179.723C310.794 179.723 323.572 179.194 330.623 168.844" stroke="#191919" stroke-width="0.5" stroke-miterlimit="10" stroke-linecap="round"/>
<path d="M339.543 170.344C339.543 170.344 331.95 178.364 329.673 203.755C326.64 237.593 331.438 235.393 331.438 235.393C331.438 235.393 338 225.351 342.981 206.412C347.963 187.473 339.543 170.344 339.543 170.344Z" fill="#42301F"/>
<path d="M315.134 293.728C315.134 293.728 316.583 294.78 320.32 295.263L319.302 297.311C319.302 297.311 322.882 299.488 328.885 298.765L328.462 299.52C328.462 299.52 330.374 302.616 331.718 302.925L333.094 283.128L315.134 293.728Z" fill="#5A733B"/>
<path d="M227.981 318.873L228.173 321.644C228.173 321.644 235.319 320.62 237.917 315.991L227.981 318.873Z" fill="#5A733B"/>
<path d="M255.216 339.604L338.08 336.248V261.175L255.216 262.098V339.604Z" fill="#E2AE73"/>
<path d="M226.925 335.828L256.33 339.604V262.098L226.925 258.323V335.828Z" fill="#C47C39"/>
<path d="M338.08 261.175L255.216 262.098L226.925 258.323H316.594L338.08 261.175Z" fill="#63482F"/>
<path d="M215.971 290.06C215.971 290.06 221.744 283.739 220.544 280.747C217.603 273.412 221.476 274.173 224.029 276.78C225.657 278.443 225.252 278.849 226.54 281.913C227.828 284.978 231.359 288.172 231.359 288.172L215.971 290.06Z" fill="#FFC2A8"/>
<path d="M227.473 288.099C226.627 288.093 219.31 286.609 218.565 287.072C210.132 292.309 213.046 313.97 223.118 314.743C228.523 315.157 233.447 313.562 234.835 312.98C241.807 310.061 237.454 306.804 237.454 306.804C237.454 306.804 241.218 305.473 240.791 302.556C240.259 298.923 236.195 301.447 236.195 301.447C236.195 301.447 242.595 300.544 243.943 297.545C245.094 294.984 240.357 294.646 239.737 294.449C239.737 294.449 243.451 292.61 239.278 289.809C235.164 287.047 230.378 288.121 227.473 288.099Z" fill="#FFC2A8"/>
<path d="M239.736 294.449L229.371 295.636L221.702 293.984" stroke="#191919" stroke-width="0.5" stroke-miterlimit="10" stroke-linecap="round"/>
<path d="M239.481 300.737L229.116 301.925L221.447 300.272" stroke="#191919" stroke-width="0.5" stroke-miterlimit="10" stroke-linecap="round"/>
<path d="M237.61 306.817L227.994 307.983L220.324 306.33" stroke="#191919" stroke-width="0.5" stroke-miterlimit="10" stroke-linecap="round"/>
<path d="M209.875 285.685L239.282 289.461L256.33 262.098L226.925 258.323L209.875 285.685Z" fill="#C47C39"/>
<path d="M338.08 287.73V292.725L266.927 294.569L252.957 262.098L338.08 287.73Z" fill="#C47C39"/>
<path d="M388.854 261.861C388.854 261.861 360.61 273.462 344.456 275.745L354.86 292.413C354.86 292.413 356.054 292.551 368.52 294.817C390.532 298.818 408.038 297.305 411.583 286.498C415.868 273.434 388.854 261.861 388.854 261.861Z" fill="#FFC2A8"/>
<path d="M344.731 298.232C345.576 298.098 354.348 293.716 354.86 292.413C355.531 290.712 360.295 274.504 339.494 275.465C333.2 275.755 322.186 281.663 320.948 282.386C314.722 286.024 319.5 287.902 319.5 287.902C319.5 287.902 312.926 290.327 314.071 292.744C315.495 295.756 323.264 292.537 323.264 292.537C323.264 292.537 317.367 294.875 319.302 297.311C320.903 299.327 327.844 296.878 328.509 296.944C328.509 296.944 326.16 300.044 331.437 300.523C335.586 300.899 341.831 298.691 344.731 298.232Z" fill="#FFC2A8"/>
<path d="M347.207 276.297C347.207 276.297 340.977 274.09 337.445 269.256C332.564 262.578 330.114 262.152 329.887 264.812C329.696 267.061 330.331 269.312 331.613 270.696C334.696 274.027 330.744 278.205 330.744 278.205C330.744 278.205 345.742 278.369 347.207 276.297Z" fill="#FFC2A8"/>
<path d="M369.114 269.187C369.114 269.187 383.026 263.275 399.773 272.985" stroke="#191919" stroke-width="0.5" stroke-miterlimit="10" stroke-linecap="round"/>
<path d="M319.5 287.902L333.64 282.308" stroke="#191919" stroke-width="0.5" stroke-miterlimit="10" stroke-linecap="round"/>
<path d="M322.171 292.858L336.48 287.023" stroke="#191919" stroke-width="0.5" stroke-miterlimit="10" stroke-linecap="round"/>
<path d="M328.224 296.842L338.53 292.508" stroke="#191919" stroke-width="0.5" stroke-miterlimit="10" stroke-linecap="round"/>
<path d="M273.092 290.215L355.955 288.322L338.08 261.175L255.216 262.098L273.092 290.215Z" fill="#E2AE73"/>
</svg>
