<svg width="660" height="517" viewBox="0 0 660 517" fill="none" xmlns="http://www.w3.org/2000/svg">
<path d="M660 486.453C660 502.88 512.255 516.197 330 516.197C147.746 516.197 0 502.88 0 486.453C0 470.027 147.746 456.71 330 456.71C512.255 456.71 660 470.025 660 486.453Z" fill="#E0E0E0"/>
<path d="M304.68 472.767C305.043 465.483 308.843 450.042 312.781 447.857C316.719 445.658 325.04 444.966 325.04 444.966C325.04 444.966 330.382 454.754 331.189 468.084C331.666 476.045 332.099 483.153 325.656 484.08C310.329 486.265 304.31 480.05 304.68 472.767Z" fill="#606ABA"/>
<path d="M335.946 366.542C335.946 366.542 326.278 429.215 325.88 437.168C325.64 442.092 326.57 442.98 327.183 449.527C327.714 455.07 332.165 468.148 319.792 468.105C306.462 468.058 309.22 458.271 309.705 453.214C310.189 448.157 314.516 442.195 314.456 434.3C314.328 417.205 308.705 368.333 308.705 368.333L335.946 366.542Z" fill="#EFA06B"/>
<path d="M360.559 262.874C360.559 262.874 358.629 281.737 350.843 307.391C343.056 333.046 341.919 357.155 339.571 381.263C337.222 405.374 332.315 440.715 332.315 440.715C332.315 440.715 325.745 444.315 318.576 443.216C311.414 442.116 307.53 439.71 307.53 439.71C307.53 439.71 302.724 391.037 302.665 371.033C302.609 351.029 300.044 299.224 303.629 283.833C307.209 268.441 315.045 260.741 315.045 260.741L360.559 262.874Z" fill="#B86F54"/>
<path d="M361.62 444.558C361.62 444.558 358.178 454.647 361.368 459.64C362.642 461.646 367.385 464.373 369.231 467.58C371.083 470.783 378.891 476.562 383.066 478.093C387.228 479.626 406.137 481.367 405.86 470.55C405.734 465.786 400.085 461.103 394.344 456.354C387.036 450.312 379.332 442.143 375.036 440.932C367.361 438.761 361.62 444.558 361.62 444.558Z" fill="#606ABA"/>
<path d="M355.753 362.001C355.753 362.001 354.294 383.613 358.321 403.297C362.352 422.977 361.66 444.611 362.799 448.292C363.948 451.973 368.246 455.286 371.4 457.783C374.562 460.292 382.712 463.714 390.45 458.196C393.723 455.858 380.863 445.766 378.115 442.655C375.363 439.529 381.715 364.475 381.715 364.475L355.753 362.001Z" fill="#EFA06B"/>
<path d="M384.647 261.467C384.647 261.467 388.427 292.021 388.189 316.501C387.95 340.985 385.705 378.054 385.05 396.036C384.389 414.02 381.784 436.188 381.784 436.188C381.784 436.188 378.333 439.041 369.007 438.396C359.677 437.757 352.922 433.159 352.922 433.159C352.922 433.159 352.512 395.448 351.728 383.295C350.944 371.138 350.67 357.278 349.754 349.322C348.833 341.367 347.012 316.464 344.271 305.176C341.523 293.887 343.053 262.365 343.053 262.365L384.647 261.467Z" fill="#B86F54"/>
<path d="M390.483 179.829C396.356 169.146 389.953 158.897 390.021 156.879C390.088 154.859 390.704 144.879 391.104 143.21C392.922 135.66 393.213 127.153 386.343 118.64C374.786 104.34 355.22 106.879 355.22 106.879C343.907 112.044 345.033 159.897 351.788 164.647C355.164 167.018 356.333 178.83 364.438 183.008C372.54 187.184 386.722 186.668 390.483 179.829Z" fill="#872B00"/>
<path d="M378.15 194.199L389.775 192.207C389.775 192.207 393.217 216.106 394.939 223.278C396.661 230.446 403.548 255.144 392.785 254.745C382.023 254.347 373.845 205.75 378.15 194.199Z" fill="#EFA06B"/>
<path d="M370.4 169.867C380.732 166.446 388.052 176.33 390.203 187.736C392.356 199.143 392.785 207.506 392.785 207.506C392.785 207.506 388.481 207.126 380.733 208.266C374.788 209.142 368.249 210.928 368.249 210.928C368.249 210.928 362.968 172.329 370.4 169.867Z" fill="#606ABA"/>
<path d="M386.856 270.333C386.856 270.333 374.133 281.684 349.878 280.249C325.62 278.814 303.739 275.224 303.739 275.224C303.739 275.224 310.399 248.286 310.572 224.915C310.723 204.223 308.494 178.309 312.563 173.416C321.236 162.987 342.411 163.38 351.941 163.196C361.467 163.013 374.589 166.089 379.644 170.975C385.349 176.484 386.294 196.624 385.019 209.323C383.744 222.023 386.856 270.333 386.856 270.333Z" fill="#606ABA"/>
<path d="M381.574 181.993C381.574 181.993 385.781 202.553 384.818 209.651" stroke="#7C90D1" stroke-miterlimit="10"/>
<path d="M379.969 251.022C379.969 251.022 371.322 233.946 375.17 231.366C379.018 228.783 382.342 231.924 382.342 231.924C382.342 231.924 383.812 229.514 386.915 230.497C390.02 231.478 390.633 234.237 390.633 234.237C390.633 234.237 393.664 231.727 396.478 234.264C399.789 237.246 388.278 254.082 388.278 254.082L379.969 251.022Z" fill="#3B4047"/>
<path d="M388.312 251.749C388.312 251.749 397.475 277.738 405.798 301.079C411.427 316.867 396.912 340.046 384.568 345.886C372.223 351.729 342.22 350.485 333.539 348.498C325.761 346.721 291.902 328.838 306.256 301.267C320.612 273.698 350.145 263.638 359.309 259.535C368.479 255.435 382.325 248.629 382.325 248.629L388.312 251.749Z" fill="#3B4047"/>
<path d="M382.661 234.703C382.661 234.703 383.538 245.889 382.722 250.242" stroke="#5B6365" stroke-miterlimit="10"/>
<path d="M390.404 235.898C390.404 235.898 388.256 247.927 386.427 251.9" stroke="#5B6365" stroke-miterlimit="10"/>
<path d="M390.262 305.923L388.921 300.401L389.881 300.038C390.144 299.934 390.355 299.685 390.425 299.38C390.497 299.075 390.419 298.763 390.225 298.557L385.226 293.356C385.132 293.252 385.016 293.185 384.88 293.156C384.754 293.128 384.616 293.141 384.481 293.19C384.213 293.29 384.006 293.542 383.932 293.847L382.095 301.648C382.022 301.954 382.099 302.264 382.294 302.47C382.392 302.57 382.513 302.639 382.644 302.667C382.771 302.693 382.91 302.685 383.04 302.636L383.998 302.272L385.336 307.797C385.529 308.587 385.447 309.069 385.38 309.167C385.3 309.244 384.877 309.368 384.157 309.21L375.494 307.297C375.081 307.208 374.658 307.516 374.546 307.987L373.622 311.898C373.514 312.37 373.759 312.824 374.173 312.916L382.833 314.824C385.274 315.365 387.517 314.667 388.982 312.91C390.45 311.154 390.912 308.607 390.262 305.923Z" fill="white"/>
<path d="M381.786 292.233C381.842 292.266 381.906 292.291 381.973 292.307C382.1 292.334 382.239 292.324 382.371 292.272L385.796 290.971C386.21 290.814 386.455 290.319 386.345 289.865L384.035 280.338C383.38 277.656 381.862 275.863 379.865 275.424C377.863 274.982 375.692 275.958 373.902 278.105L370.223 282.52L369.523 281.792C369.424 281.691 369.306 281.622 369.174 281.595C369.046 281.566 368.909 281.576 368.775 281.627C368.505 281.726 368.298 281.978 368.225 282.281L366.388 290.083C366.318 290.39 366.394 290.702 366.588 290.904C366.686 291.007 366.803 291.073 366.935 291.104C367.064 291.131 367.204 291.119 367.335 291.069L374.169 288.477C374.437 288.378 374.647 288.124 374.717 287.819C374.788 287.513 374.711 287.201 374.519 286.996L373.821 286.268L377.501 281.853C378.031 281.219 378.439 281.028 378.542 281.039C378.638 281.072 378.923 281.414 379.109 282.207L381.424 291.733C381.477 291.954 381.603 292.131 381.786 292.233Z" fill="white"/>
<path d="M367.433 303.59C367.335 303.492 367.216 303.425 367.081 303.394C366.958 303.368 366.818 303.376 366.683 303.426C366.417 303.531 366.209 303.78 366.137 304.084L365.88 305.173L360.857 304.068C360.136 303.908 359.813 303.616 359.772 303.509C359.758 303.399 359.9 302.932 360.429 302.299L366.775 294.683C366.919 294.509 367 294.284 367 294.053C367 293.824 366.921 293.608 366.776 293.458L364.272 290.846C364.176 290.744 364.054 290.679 363.925 290.65C363.669 290.593 363.382 290.691 363.179 290.935L356.825 298.55C355.035 300.692 354.318 303.186 354.851 305.382C355.382 307.578 357.092 309.148 359.53 309.686L364.552 310.795L364.294 311.886C364.224 312.191 364.302 312.507 364.495 312.707C364.594 312.808 364.712 312.876 364.845 312.906C364.972 312.935 365.107 312.923 365.246 312.876L372.077 310.277C372.342 310.174 372.551 309.927 372.628 309.62C372.698 309.317 372.62 309 372.425 308.796L367.433 303.59Z" fill="white"/>
<path d="M370.374 160.526L369.237 174.47C369.237 174.47 363.267 179.205 355.59 177.365C347.912 175.524 341.943 170.261 341.943 170.261L348.765 155.528L370.374 160.526Z" fill="#EFA06B"/>
<path d="M365.392 113.512C374.435 114.272 382.29 124.316 384.301 130.247C386.325 136.174 391.083 157.425 376.347 163.947C356.729 172.628 345.524 161.062 339.951 141.847C333.905 121.003 356.349 112.751 365.392 113.512Z" fill="#EFA06B"/>
<path d="M353.93 174.882C354.82 179.817 356.598 186.807 345.931 189.275C336.714 191.408 335.006 175.989 329.489 173.237C322.253 169.63 313.935 178.582 310.824 172.415C307.712 166.247 313.408 157.107 317.492 151.443C321.933 145.275 326.37 134.87 327.571 130.798C330.987 119.224 332.562 115.517 343.777 107.911C354.992 100.303 382.848 110.084 380.88 116.306C378.911 122.523 373.884 126.76 367.246 130.536C360.814 134.198 354.4 136.686 348.939 139.366C347.021 140.306 342.128 141.037 343.131 144.984C343.904 148.048 346.824 154.733 347.265 159.668C347.71 164.602 353.04 169.947 353.93 174.882Z" fill="#872B00"/>
<path d="M337.512 139.724C341.346 135.169 344.907 141.432 344.907 141.432C346.706 147.06 348.667 152.183 343.148 151.081C337.813 150.016 333.603 144.367 337.512 139.724Z" fill="#EFA06B"/>
<path d="M356.374 139.751C356.251 139.739 356.128 139.726 356.007 139.713C354.635 139.567 354.584 141.787 356.007 141.72C357.747 141.64 359.441 141.065 361.197 141.353C362.14 141.507 363.395 142.094 363.88 140.986C364.443 139.698 362.012 139.077 361.148 139.01C359.381 138.878 357.363 139.134 355.718 139.747C355.996 140.359 356.274 140.97 356.554 141.582C356.656 141.523 356.757 141.464 356.859 141.404C357.721 140.903 357.293 139.848 356.374 139.751Z" fill="#872B00"/>
<path d="M376.746 140.955C376.653 140.926 376.556 140.896 376.462 140.864C376.27 141.507 376.079 142.149 375.888 142.792C376.944 142.938 378.006 142.847 379.072 142.908C380.179 142.971 381.075 143.567 382.15 143.675C382.789 143.738 383.302 143.033 383.115 142.5C382.316 140.209 377.883 140.344 375.888 140.865C374.402 141.254 375.279 143.334 376.72 142.693C376.805 142.656 376.889 142.617 376.975 142.579C377.781 142.218 377.466 141.182 376.746 140.955Z" fill="#872B00"/>
<path d="M361.629 147.099C361.492 148.48 360.162 149.495 358.671 149.364C357.176 149.234 356.082 148.01 356.225 146.628C356.362 145.248 357.688 144.232 359.182 144.36C360.671 144.491 361.77 145.72 361.629 147.099Z" fill="#412F00"/>
<path d="M381.127 148.751C380.985 150.131 379.663 151.144 378.173 151.015C376.683 150.882 375.587 149.662 375.728 148.282C375.865 146.9 377.189 145.888 378.679 146.016C380.17 146.147 381.267 147.372 381.127 148.751Z" fill="#412F00"/>
<path d="M370.175 142.843C370.175 142.843 370.389 143.925 370.506 145.497C370.566 146.281 370.638 147.195 370.7 148.141C370.733 148.607 370.77 149.102 370.839 149.522C370.853 149.632 370.871 149.735 370.896 149.8L370.926 149.914C370.937 149.916 370.938 149.885 370.934 149.873L370.893 149.801L370.952 149.882C370.946 149.845 370.907 149.793 370.94 149.817L371.108 149.915C371.422 150.125 371.935 150.4 372.489 150.858C372.763 151.105 373.075 151.399 373.332 151.894C373.593 152.372 373.645 153.114 373.446 153.611C373.016 154.631 372.425 154.915 372.011 155.221C371.476 155.571 371.014 155.76 370.534 155.906C369.591 156.181 368.793 156.204 368.24 156.142C367.689 156.095 367.386 155.971 367.386 155.971C367.386 155.971 367.641 155.781 368.037 155.483C368.426 155.172 368.972 154.768 369.485 154.251C369.734 154.008 370.027 153.712 370.203 153.457C370.476 153.155 370.688 152.776 370.574 152.85C370.535 152.881 370.534 153.093 370.552 153.123C370.576 153.162 370.507 153.076 370.38 152.973C370.117 152.737 369.672 152.457 369.139 151.983C369.006 151.859 368.863 151.714 368.714 151.528C368.653 151.455 368.535 151.295 368.451 151.15L368.409 151.059C368.321 150.892 368.339 150.895 368.303 150.803C368.26 150.668 368.216 150.512 368.195 150.39L368.173 150.119C368.154 149.929 368.16 149.777 368.167 149.63C368.187 149.027 368.279 148.513 368.372 148.007C368.568 147.006 368.849 146.108 369.103 145.344C369.615 143.816 370.175 142.843 370.175 142.843Z" fill="#CC7745"/>
<path d="M372.014 159.428C372.014 159.428 369.585 161.714 365.115 160.69C361.167 159.782 360.197 157.279 360.197 157.279" stroke="#C66661" stroke-width="1.5" stroke-miterlimit="10" stroke-linecap="round" stroke-linejoin="round"/>
<path d="M350.472 162.367C350.472 162.367 357.307 168.26 368.104 167.142" stroke="#CD7755" stroke-miterlimit="10"/>
<path d="M330.27 201.753L325.84 227.992C325.84 227.992 331.6 231.272 336.031 235.371C340.459 239.471 353.78 252.433 353.78 252.433L351.535 262.022C351.535 262.022 309.89 247.26 303.688 237.42C297.484 227.581 304.575 196.425 304.575 196.425L330.27 201.753Z" fill="#EFA06B"/>
<path d="M326.652 171.088C319.485 169.14 311.871 171.75 308.122 178.241C303.184 186.8 301.171 208.946 301.171 208.946C301.171 208.946 303.998 211.155 312.617 213.639C321.234 216.125 329.75 214.255 329.75 214.255C329.75 214.255 330.702 202.723 333.816 191.915C336.93 181.108 333.819 173.04 326.652 171.088Z" fill="#606ABA"/>
<path d="M350.894 252.482C350.894 252.482 358.589 246.031 365.058 245.404C368.476 245.071 374.105 244.788 377.067 247.03C380.874 249.915 383.881 254.232 383.587 256.691C383.313 258.984 382.996 261.884 380.927 262.978C378.859 264.07 377.975 262.157 377.975 262.157C377.975 262.157 375.611 265.164 374.726 265.164C372.363 265.164 372.068 263.523 372.068 263.523C372.068 263.523 368.165 265.983 367.34 265.983C364.3 265.983 364.684 262.431 364.684 262.431C364.684 262.431 361.213 264.304 359.74 263.156C358.265 262.009 359.528 260.354 358.441 260.246C354.534 264.058 350.65 261.987 349.084 260.922C346.088 258.884 350.894 252.482 350.894 252.482Z" fill="#EFA06B"/>
<path d="M377.977 262.156C377.977 262.156 379.568 258.765 379.158 255.596C378.655 251.742 372.614 249.905 372.614 249.905" stroke="#CD7755" stroke-miterlimit="10"/>
<path d="M370.998 263.74C370.998 263.74 372.914 260.46 372.5 257.29C371.998 253.439 367.27 251.818 367.27 251.818" stroke="#CD7755" stroke-miterlimit="10"/>
<path d="M363.769 255.072C363.769 255.072 366.914 255.641 366.646 258.284C366.382 260.931 364.24 263.117 364.24 263.117" stroke="#CD7755" stroke-miterlimit="10"/>
<path d="M332.086 187.825C332.086 187.825 332.517 207.349 330.366 213.717" stroke="#7C90D1" stroke-miterlimit="10"/>
<path d="M397.921 238.529C396.664 238.468 389.125 239.359 387.098 242.03C385.071 244.699 388.96 245.464 388.96 245.464C388.96 245.464 385.56 245.876 385.17 248.012C384.779 250.15 388.184 250.745 388.184 250.745C388.184 250.745 384.196 251.797 384.655 254.6C385.112 257.405 389.265 256.401 389.265 256.401C389.265 256.401 386.583 257.848 387.695 259.826C388.811 261.8 397.935 262.093 398.425 259.165C398.908 256.237 397.409 255.372 397.409 255.372C397.409 255.372 399.138 255.074 399.467 253.122C399.792 251.169 398.547 250.588 398.547 250.588C398.547 250.588 400.076 248.817 400.24 246.817C400.401 244.814 398.997 244.186 398.997 244.186C398.997 244.186 400.369 243.369 400.63 241.601C400.894 239.836 399.523 238.602 397.921 238.529Z" fill="#EFA06B"/>
<path d="M389.582 245.253C389.582 245.253 397.441 244.922 398.468 244.149" stroke="#CD7755" stroke-miterlimit="10"/>
<path d="M388.616 250.552C388.616 250.552 396.481 250.219 397.509 249.447" stroke="#CD7755" stroke-miterlimit="10"/>
<path d="M389.694 256.462C389.694 256.462 396.06 256.196 396.892 255.57" stroke="#CD7755" stroke-miterlimit="10"/>
<path d="M541.293 143.847C535.194 137.231 529.379 139.144 514.343 136.458C508.823 148.241 503.419 162.424 501.925 166.407C497.134 165.28 464.994 157.731 462.298 157.213C459.389 156.652 449.749 159.136 450.591 162.974C451.441 166.812 484.899 193.701 498.86 196.965C507.678 199.027 513.89 196.654 517.594 192.79C528.152 186.903 535.493 162.649 541.293 143.847Z" fill="#EFA06B"/>
<path d="M505.61 153.773C507.337 146.776 511.56 125.856 518.402 116.53C528.815 102.33 536.755 105.395 548.855 104.949C555.215 104.713 544.758 141.592 535.275 165.606C527.288 161.447 519.419 156.613 505.61 153.773Z" fill="#404AA6"/>
<path d="M448.511 120.858L447.856 119.311C446.456 115.995 448.385 114.076 451.322 113.016C454.257 111.952 457.083 112.148 458.483 115.464L459.137 117.011C464.087 115.572 469.821 118.699 472.156 124.223L486.892 159.067C489.31 164.787 487.167 170.911 482.103 172.745L472.517 176.215C467.453 178.048 461.387 174.896 458.968 169.176L444.237 134.331C441.899 128.808 443.82 122.909 448.511 120.858Z" fill="#E6F2E6"/>
<path d="M455.436 106.176L443.248 110.589L446.238 117.658L458.426 113.245L455.436 106.176Z" fill="#CE4D52"/>
<path d="M439.482 137.201C440.762 134.713 441.052 131.201 445.256 131.411C449.463 131.623 452.271 133.566 452.561 135.457C452.857 137.346 451.325 138.908 451.325 138.908C451.325 138.908 455.66 139.291 456.54 142.261C457.419 145.232 454.63 144.298 454.63 144.298C454.63 144.298 461.245 145.55 461.032 149.604C460.82 153.658 454.565 151.019 454.565 151.019C454.565 151.019 458.739 169.764 452.015 164.097C445.293 158.43 442.652 152.222 441.957 150.385C441.251 148.548 441.251 148.548 441.251 148.548C441.251 148.548 439.432 144.929 438.383 143.525C437.326 142.12 438.199 139.686 439.482 137.201Z" fill="#EFA06B"/>
<path d="M449.53 137.404C449.53 137.404 444.634 136.126 441.235 137.739" stroke="#CD7755" stroke-miterlimit="10"/>
<path d="M454.63 144.296C454.63 144.296 445.442 140.652 441.188 145.466" stroke="#CD7755" stroke-miterlimit="10"/>
<path d="M456.264 151.177C456.264 151.177 452.345 150.154 448.669 153.346" stroke="#CD7755" stroke-miterlimit="10"/>
<path d="M568.216 442.074C568.216 442.074 573.937 453.657 570.876 460.022C569.64 462.58 564.361 466.451 562.619 470.518C560.901 474.584 553.81 481.58 545.492 483.765C537.174 485.954 519.427 483.873 518.528 474.878C517.96 469.179 524.418 466.807 530.601 460.395C538.46 452.251 546.919 442.725 551.911 440.729C560.817 437.141 568.216 442.074 568.216 442.074Z" fill="#404AA6"/>
<path d="M544.484 413.256L565.342 409.271C565.342 409.271 565.284 422.081 565.891 428.542C566.497 434.997 567.678 444.946 567.373 446.683C566.574 451.225 561.889 455.729 558.475 459.116C555.057 462.515 547.215 465.893 537.029 460.325C532.71 457.956 545.195 446.022 548.024 441.943C549.032 440.496 544.484 413.256 544.484 413.256Z" fill="#EFA06B"/>
<path d="M630.202 472.64C629.684 463.901 624.931 445.369 620.14 442.765C615.329 440.147 605.226 439.363 605.226 439.363C605.226 439.363 598.83 451.148 597.968 467.159C597.461 476.715 598.677 487.524 606.419 489.025C627.096 493.02 630.712 481.376 630.202 472.64Z" fill="#404AA6"/>
<path d="M604.142 430.01C603.932 426.455 600.695 405.754 600.695 405.754C600.695 405.754 607.105 402.213 611.598 402.351C616.098 402.487 620.64 401.507 620.64 401.507C620.64 401.507 619.45 418.467 619.45 426.551C619.447 436.027 623.277 443.121 623.914 449.185C624.562 455.253 627.992 466.987 611.8 467.116C596.785 467.241 602.079 451.508 602.661 444.848C603.351 436.981 604.476 435.92 604.142 430.01Z" fill="#EFA06B"/>
<path d="M615.779 219.136C615.779 219.136 620.467 226.75 625.105 265.663C626.665 278.699 628.267 302.731 627.97 319.664C627.657 336.596 626.739 436.069 626.739 436.069C626.739 436.069 620.795 442.61 609.635 442.755C598.469 442.901 596.381 436.46 596.381 436.46C596.381 436.46 585.021 358.701 582.605 348.959C580.191 339.217 570.55 272.374 570.55 272.374L570.766 349.503L570.993 431.245C570.993 431.245 566.448 438.124 553.873 437.01C541.301 435.895 538.61 431.663 538.61 431.663C538.61 431.663 518.519 294.753 521.541 261.461C523.179 243.487 530.005 219.785 530.005 219.785L615.779 219.136Z" fill="#257477"/>
<path d="M528.816 176.878C528.92 161.446 523.884 153.887 523.884 144.422C523.884 134.956 528.267 126.672 530.462 121.6C532.655 116.53 533.044 106.46 536.489 104.865C544.163 101.315 552.739 100.574 564.99 98.2726C577.887 95.849 603.313 96.973 610.973 104.555C618.626 112.135 611.81 172.189 612.665 184.811C613.516 197.431 627.085 247.952 627.085 247.952C627.085 247.952 592.049 261.678 566.248 262.396C543.457 263.031 519.423 253.159 519.423 253.159C519.423 253.159 528.648 199.914 528.816 176.878Z" fill="#E26081"/>
<path d="M548.498 29.3557C542.003 32.1866 527.443 33.774 521.693 52.4547C519.727 58.8116 521.774 65.7988 524.906 71.3944C527.247 75.5752 528.138 78.5256 531.462 82.3869C534.78 86.2482 527.95 96.2074 537.172 101.288C546.396 106.368 554.787 97.1947 559.576 97.0191C568.681 96.691 585.053 100.473 594.06 90.3139C603.066 80.1518 592.743 70.8029 589.228 66.7372C585.713 62.6715 585.495 55.7605 583.958 48.6495C582.418 41.5355 577.908 37.667 573.632 34.0158C567.034 28.3814 554.992 26.5248 548.498 29.3557Z" fill="#814236"/>
<path d="M550.231 82.5007L549.954 98.9017C549.954 98.9017 551.802 115.799 558.275 117.297C564.055 118.636 579.544 98.7937 579.544 98.7937L571.927 75.8818L550.231 82.5007Z" fill="#EFA06B"/>
<path d="M527.801 69.5535C524.627 56.136 528.758 42.9775 544.514 37.3632C553.418 34.1927 560.754 37.2063 567.952 43.8698C573.134 48.658 578.134 66.0606 574.713 73.9215C571.304 81.7852 569.22 91.1126 553.442 93.3131C539.541 95.2502 530.991 82.9697 527.801 69.5535Z" fill="#EFA06B"/>
<path d="M530.598 48.0248C535.323 53.1901 547.482 47.7845 549.474 48.6494C551.475 49.5072 550.092 56.185 561.966 59.9341C564.205 60.6379 566.167 63.0802 566.828 67.9562C567.405 72.2334 570.122 70.1912 570.122 70.1912C570.122 70.1912 572.223 75.9149 573.654 76.7366C577.666 79.0422 581.406 77.7916 585.234 72.9113C589.062 68.0281 592.219 53.583 583.771 42.4868C575.958 32.2211 572.712 30.0436 560.981 26.9925C547.488 23.478 523.307 40.0776 530.598 48.0248Z" fill="#814236"/>
<path d="M544.641 84.6221C545.111 83.7528 547.056 83.809 549.693 83.1987C552.329 82.59 556.941 79.9476 556.941 79.9476C556.941 79.9476 559.356 84.2148 553.864 86.8586C549.587 88.9167 543.631 86.4844 544.641 84.6221Z" fill="white"/>
<path d="M541.097 65.7183C541.097 65.7183 542.156 66.6768 543.358 68.3693C543.949 69.227 544.634 70.2172 545.166 71.4894C545.293 71.8147 545.416 72.1543 545.503 72.5602C545.544 72.9732 545.747 73.4338 545.239 74.3505C544.9 74.8931 544.557 75.4443 544.212 75.9969C543.917 76.4848 543.7 76.9526 543.646 77.2678C543.582 77.5916 543.584 77.7139 543.744 77.9989L543.775 78.0521L543.789 78.0795L543.795 78.0938L543.798 78.101C543.819 78.1183 543.64 77.9643 543.716 78.032L543.722 78.0363L543.895 78.2003L544.064 78.3615L544.148 78.4191C544.209 78.5026 544.467 78.6522 544.66 78.7544C545.08 78.9861 545.575 79.1574 546.038 79.32C546.984 79.6093 547.853 79.818 548.469 79.9619C549.098 80.1087 549.457 80.1922 549.457 80.1922C549.457 80.1922 549.123 80.362 548.497 80.5563C547.874 80.7477 546.959 80.9837 545.789 81.0111C545.201 81.0298 544.551 81.0154 543.828 80.8441C543.456 80.742 543.125 80.6729 542.654 80.4253L542.326 80.2483L542.125 80.1173L541.921 79.9864L541.705 79.7978L541.574 79.6741C541.226 79.356 540.923 78.8955 540.739 78.3961C540.577 77.8938 540.517 77.3469 540.596 76.872C540.731 75.8976 541.159 75.1608 541.596 74.5275C542.044 73.8957 542.54 73.369 542.959 72.9358C542.803 73.2798 542.968 73.0581 542.932 72.8509C542.932 72.6278 542.893 72.3573 542.845 72.0881C542.637 70.9915 542.302 69.8732 542.018 68.9377C541.734 67.9792 541.501 67.179 541.336 66.6192C541.182 66.0464 541.097 65.7183 541.097 65.7183Z" fill="#CC7745"/>
<path d="M560.695 62.2469C558.76 60.4954 555.956 60.3961 553.438 60.8984C551.777 61.2294 549.14 62.1318 548.98 63.961C548.958 64.197 549.19 64.5021 549.453 64.5352C550.688 64.6892 551.686 64.0243 552.758 63.5422C555.195 62.4499 557.351 63.0284 559.762 63.7307C560.687 64.0013 561.37 62.8571 560.695 62.2469Z" fill="#814236"/>
<path d="M538.535 65.3598C536.51 64.4172 533.771 64.4589 531.702 65.3167C530.413 65.8535 528.193 67.1574 528.725 68.7448C528.817 69.0182 529.05 69.1564 529.346 69.1823C530.545 69.2917 531.41 68.1288 532.329 67.5978C534.102 66.5731 536.118 67.1473 538.05 67.0135C538.93 66.9545 539.454 65.7873 538.535 65.3598Z" fill="#814236"/>
<path d="M552.964 70.4691C553.19 71.8335 554.576 72.7718 556.049 72.5689C557.534 72.3631 558.55 71.0937 558.326 69.7337C558.099 68.3679 556.717 67.4267 555.233 67.631C553.754 67.8354 552.739 69.1091 552.964 70.4691Z" fill="#392725"/>
<path d="M532.928 74.0985C533.159 75.4571 534.538 76.394 536.018 76.194C537.495 75.9882 538.519 74.7202 538.29 73.3573C538.064 71.993 536.688 71.0532 535.206 71.259C533.726 71.4619 532.701 72.7341 532.928 74.0985Z" fill="#392725"/>
<path d="M570.122 67.1431C570.122 67.1431 574.39 59.1556 578.742 61.6367C580.67 62.7348 581.989 67.0567 581.521 70.374C580.932 74.5563 577.868 77.7643 574.001 77.8593C569.976 77.9499 568.957 73.546 570.122 67.1431Z" fill="#EFA06B"/>
<path d="M550.896 94.5192C555.42 94.5581 563.895 90.665 570.473 84.0707" stroke="#CD7755" stroke-miterlimit="10"/>
<path d="M537.07 182.277L536.891 180.899C536.509 177.949 538.499 176.772 541.111 176.481C543.722 176.189 545.962 176.894 546.345 179.842L546.528 181.22C550.849 181.014 554.781 184.648 555.42 189.562L559.464 220.565C560.126 225.658 557.015 230.192 552.507 230.692L543.979 231.645C539.473 232.149 535.281 228.43 534.62 223.34L530.576 192.337C529.934 187.423 532.818 183.028 537.07 182.277Z" fill="#E6F2E6"/>
<path d="M546.011 171.736L535.165 172.947L535.985 179.24L546.832 178.029L546.011 171.736Z" fill="#B0C0A6"/>
<path d="M629.136 140.596C623.435 139.259 611.364 133.848 600.807 150.551C601.423 152.703 605.253 168.656 607.724 178.991C595.799 188.5 574.643 205.521 573.257 207.717C571.317 210.785 575.649 220.149 581.902 218.744C587.392 217.514 623.28 201.183 633.428 192.747C633.97 192.426 634.5 192.063 635.012 191.634C640.555 186.978 633.007 159.061 629.136 140.596Z" fill="#EFA06B"/>
<path d="M538.063 206.91C540.273 206.098 543.371 207.783 547.325 208.687C549.838 209.259 556.995 207.167 556.995 207.167C556.995 207.167 557.393 206.292 554.066 206.108C550.742 205.918 549.818 203.031 551.723 201.258C553.626 199.484 560.661 199.165 563.551 201.055C566.441 202.942 575.34 206.088 575.34 206.088L582.486 217.951C582.486 217.951 570.203 226.483 563.781 228.724C557.357 230.963 554.441 231.589 547.28 230.358C540.117 229.129 538.934 228.567 537.44 227.044C535.947 225.52 537.887 224.135 537.887 224.135C537.887 224.135 534.423 223.612 533.745 220.913C533.068 218.217 536.011 217.971 536.011 217.971C536.011 217.971 533.33 215.89 533.564 213.177C533.791 210.465 537.078 211.568 537.078 211.568C537.078 211.568 535.854 207.719 538.063 206.91Z" fill="#EFA06B"/>
<path d="M555.97 225.179C555.97 225.179 551.12 227.195 547.205 226.683C543.289 226.173 537.885 224.137 537.885 224.137" stroke="#CD7755" stroke-miterlimit="10"/>
<path d="M556.857 219.36C556.857 219.36 551.026 221.094 546.551 221.469C543.606 221.712 538.662 219.671 536.011 217.971" stroke="#CD7755" stroke-miterlimit="10"/>
<path d="M557.256 213.159C557.256 213.159 551.286 215.389 546.889 214.497C542.484 213.605 537.778 211.753 537.778 211.753" stroke="#CD7755" stroke-miterlimit="10"/>
<path d="M600.435 98.4857C608.814 98.5965 621.594 112.237 626.668 126.747C628.368 131.611 632.68 141.014 631.029 143.581C629.379 146.15 624.616 149.886 617.788 153.362C612.332 156.14 597.313 158.166 597.313 158.166C597.313 158.166 588.835 135.866 586.51 124.185C584.186 112.505 585.679 98.2885 600.435 98.4857Z" fill="#404AA6"/>
<path d="M172.289 75.9581C179.414 73.4223 188.732 76.4662 193.665 85.5949C198.597 94.7237 204.627 125.658 204.627 125.658L171.192 129.208C171.192 129.208 162.422 99.7954 161.874 92.1878C161.327 84.5803 165.164 78.494 172.289 75.9581Z" fill="#543454"/>
<path d="M165.148 442.488C165.148 442.488 159.511 443.95 152.041 443.957C144.578 443.96 134.249 440.949 134.249 440.949C134.249 440.949 130.171 455.8 130.626 464.776C130.855 469.277 133.921 470.291 139.924 474.465C143.687 477.094 148.686 482.569 154.631 485.989C160.953 489.602 177.859 490.703 184.83 488.202C199.462 482.952 194.858 475.753 187 469.628C184.217 467.458 179.422 462.918 177.08 459.857C170.152 450.835 165.148 442.488 165.148 442.488Z" fill="#51363B"/>
<path d="M153.585 453.642C153.585 453.642 160.875 450.603 168.42 451.727" stroke="#855E59" stroke-width="0.9331" stroke-miterlimit="10"/>
<path d="M158.192 460.84C158.192 460.84 165.479 457.797 173.03 458.923" stroke="#855E59" stroke-width="0.9331" stroke-miterlimit="10"/>
<path d="M131.666 461.929C131.666 461.929 139.699 466.368 145.014 471.562C150.323 476.753 154.603 483.143 161.944 485.394C169.287 487.652 185.939 488.12 193.897 482.518" stroke="#855E59" stroke-width="0.9331" stroke-miterlimit="10"/>
<path d="M191.254 293.484C192.826 253.472 190.646 226.373 188.078 219.688C185.867 213.932 156.27 204.098 145.165 206.741C134.061 209.387 129.219 221.43 128.508 248.261C127.794 275.091 135.277 328.114 136.216 334.313C137.887 345.298 134.616 344.701 134.683 360.973C134.775 384.51 134.299 440.515 134.299 440.515C134.299 440.515 140.313 443.4 149.524 443.855C159.361 444.338 165.493 443.147 165.493 443.147C165.493 443.147 177.391 393.1 182.671 364.236C184.701 353.14 190.274 318.466 191.254 293.484Z" fill="#5C88AE"/>
<path d="M32.1424 407.006C32.1424 407.006 25.0514 420.884 23.804 425.792C22.5612 430.705 22.429 435.919 26.2615 439.573C29.5636 442.709 34.1069 450.901 35.1723 453.729C37.3141 459.372 43.0239 466.177 59.4814 468.219C77.9563 470.501 77.4835 461.206 74.5469 453.444C72.4036 447.798 68.6722 440.753 66.4714 433.639C64.1834 426.233 62.2298 417.489 62.2298 417.489C62.2298 417.489 52.6237 415.484 47.1161 413.714C41.6101 411.938 32.1424 407.006 32.1424 407.006Z" fill="#51363B"/>
<path d="M24.3267 428.434C24.3267 428.434 34.4569 439.66 36.594 445.766C38.7435 451.87 43.5279 459.12 49.541 462.115C55.5541 465.113 70.7611 465.601 74.4941 463.022" stroke="#855E59" stroke-width="1.002" stroke-miterlimit="10"/>
<path d="M47.5757 430.659C47.5757 430.659 56.4787 428.083 65.0489 432.197" stroke="#855E59" stroke-width="1.0584" stroke-miterlimit="10"/>
<path d="M49.9175 440.196C49.9175 440.196 58.8205 437.612 67.3907 441.736" stroke="#855E59" stroke-width="1.0584" stroke-miterlimit="10"/>
<path d="M136.263 206.197C115.97 205.684 80.6766 207.54 78.0169 212.078C75.5905 216.217 72.3413 303.151 72.3413 303.151C72.3413 303.151 61.6092 314.778 59.3819 320.398C54.739 332.116 51.5738 345.74 48.421 355.391C44.1391 368.495 32.2715 407.053 32.2715 407.053C32.2715 407.053 37.2549 413.213 46.8688 417.558C56.4842 421.9 62.2547 419.748 62.2547 419.748C62.2547 419.748 109.428 346.979 113.691 337.329C117.956 327.679 136.761 271.56 137.836 264.365C140.697 245.194 142.208 225.896 143.284 206.577C140.872 206.39 138.514 206.256 136.263 206.197Z" fill="#5C88AE"/>
<path d="M143.272 245.47C143.272 245.47 136.176 280.518 132.903 285.651" stroke="#42689D" stroke-miterlimit="10"/>
<path d="M75.1297 178.555C75.1204 171.566 77.119 152.204 76.2729 139.134C75.3537 124.98 70.196 109.93 72.5369 98.2714C73.6614 92.6772 75.6367 85.2007 84.0467 80.0138C97.2006 71.8997 128.918 72.0019 141.92 72.7603C154.924 73.5188 165.916 71.2333 177.938 73.9592C189.961 76.6864 190.525 91.2294 190.924 108.92C190.967 110.897 190.144 130.341 189.829 138.334C189.079 157.333 189.835 169.294 189.303 190.123C188.524 220.607 195.923 244.327 193.02 247.911C190.112 251.489 149.598 258.469 136.851 257.841C124.098 257.214 71.3797 246.927 70.5926 243.519C67.0619 228.253 75.1546 197.079 75.1297 178.555Z" fill="#543454"/>
<path d="M187.635 93.7076C187.635 93.7076 190.376 113.993 189.279 131.236" stroke="#70578B" stroke-miterlimit="10"/>
<path d="M125.047 121.731L123.465 141.686L117.76 145.812L123.067 146.698L121.277 169.251L116.802 171.448L120.997 172.756C120.997 172.756 122.354 186.175 121.239 191.926C121.001 193.143 120.734 194.533 120.452 195.963L113.834 199.278L119.791 199.393C118.978 203.574 118.259 207.274 118.259 207.274L207.285 213.673L214.391 124.139L125.047 121.731Z" fill="#FFF0DB"/>
<path d="M225.382 194.235L163.042 191.404L225.251 196.562C225.298 195.792 225.338 195.018 225.382 194.235Z" fill="#D9D4BF"/>
<path d="M182.504 144.923C175.819 143.213 137.555 140.087 123.605 138.413L123.454 140.313C145.789 141.149 182.504 144.923 182.504 144.923Z" fill="#D9D4BF"/>
<path d="M203.922 136.588C196.144 134.691 145.542 132.52 129.388 131.037C129.388 131.037 135.628 133.556 148.266 133.733C160.903 133.904 203.922 136.588 203.922 136.588Z" fill="#D9D4BF"/>
<path d="M198.24 198.023C190.462 196.126 139.862 193.953 123.705 192.472C123.705 192.472 129.945 194.991 142.582 195.166C155.221 195.34 198.24 198.023 198.24 198.023Z" fill="#D9D4BF"/>
<path d="M183.736 169.202C183.736 169.202 172.689 165.887 157.028 164.508C144.182 163.38 129.394 162.293 121.729 162.055L121.514 164.776C143.738 163.194 183.736 169.202 183.736 169.202Z" fill="#D9D4BF"/>
<path d="M211.839 156.315L212.06 153.548C197.007 152.573 150.423 149.584 147.163 149.709L211.839 156.315Z" fill="#D9D4BF"/>
<path d="M209.755 182.582C191.916 181.41 136.071 177.753 132.175 177.834L209.534 185.355L209.755 182.582Z" fill="#D9D4BF"/>
<path d="M244.833 134.785L245.934 127.493C245.934 127.493 230.334 124.318 212.3 123.988L205.194 213.521L242.053 216.171C242.053 216.171 243.526 197.63 243.758 184.791C243.985 171.955 243.067 153.745 244.503 145.533C244.956 142.962 245.268 140.231 245.478 137.695L233.698 135.998C239 136.083 244.833 134.785 244.833 134.785Z" fill="#E0DBC0"/>
<path d="M212.457 178.323L243.784 182.408C243.794 181.561 243.793 180.695 243.794 179.817L212.457 178.323Z" fill="#B8B2A3"/>
<path d="M244.224 147.564C244.289 146.969 244.37 146.412 244.452 145.887L217.527 143.601L244.224 147.564Z" fill="#B8B2A3"/>
<path d="M220.031 160.959C220.031 160.959 238.33 160.987 242.159 161.692C245.984 162.396 256.676 167.459 256.676 167.459L220.031 160.959Z" fill="#FFF0DB"/>
<path d="M133.616 52.03L125.506 74.6785C125.506 74.6785 125.881 80.8296 128.925 84.9083C132.159 89.2431 146.229 102.098 149.284 101.991C151.105 101.928 159.12 92.6353 161.254 87.3448C163.388 82.0544 162.245 77.0949 162.245 77.0949L161.006 61.2898L133.616 52.03Z" fill="#EFA06B"/>
<path d="M169.34 10.8923C161.503 0.524422 142.843 1.62972 133.629 7.13893C119.473 15.6143 119.1 33.348 125.444 48.4465C128.925 56.7391 134.405 65.1598 142.656 68.6124C160.577 76.1178 171.818 66.445 174.943 61.2466C178.413 55.4554 177.828 40.6259 177.357 35.3772C176.671 27.6891 177.178 21.2689 169.34 10.8923Z" fill="#EFA06B"/>
<path d="M121.447 35.003C115.138 33.62 111.977 40.3942 116.096 47.0864C118.683 51.2961 127.911 52.9957 130.986 51.1018C129.755 46.564 127.758 36.3803 121.447 35.003Z" fill="#EFA06B"/>
<path d="M166.12 39.9942C166.311 41.3902 167.638 42.3775 169.085 42.2091C170.533 42.0364 171.552 40.7656 171.359 39.3739C171.163 37.9836 169.834 36.992 168.389 37.1633C166.943 37.3345 165.927 38.5996 166.12 39.9942Z" fill="#392725"/>
<path d="M143.368 41.7211C143.558 43.1157 144.884 44.1044 146.332 43.9332C147.777 43.7619 148.796 42.494 148.603 41.098C148.409 39.7091 147.077 38.7175 145.634 38.8917C144.189 39.0629 143.169 40.328 143.368 41.7211Z" fill="#392725"/>
<path d="M139.633 37.4021C141.857 35.9989 144.418 35.6535 147.063 35.6535C148.625 35.6535 150.107 35.3988 151.617 35.3326C152.073 35.3124 152.395 34.7684 152.011 34.4518C148.392 31.4554 141.791 32.588 138.194 35.1253C136.774 36.1284 138.084 38.3793 139.633 37.4021Z" fill="#592221"/>
<path d="M174.476 31.3086C171.402 28.9959 163.568 29.4909 162.434 33.4746C162.336 33.8171 162.709 34.2662 163.12 34.1093C164.534 33.571 166.503 33.2976 168.022 33.0529C169.383 32.8342 171.55 32.5866 172.749 33.3796C174.062 34.2489 175.726 32.2513 174.476 31.3086Z" fill="#592221"/>
<path d="M157.959 53.8866C157.959 53.8866 158.207 53.58 158.637 53.0432C159.062 52.5136 159.667 51.771 160.334 50.8988C160.642 50.4455 161.006 49.9864 161.308 49.4812C161.6 48.9718 161.913 48.4537 162.089 47.9341C162.188 47.6664 162.237 47.4376 162.28 47.1584C162.307 46.954 162.296 46.79 162.255 46.695C162.223 46.564 162.045 46.3726 161.446 46.0459C160.872 45.7437 160.104 45.4342 159.291 44.9276C158.892 44.6643 158.476 44.3304 158.124 43.9029C158.034 43.8008 157.956 43.6799 157.877 43.5662L157.791 43.4309L157.777 43.4007L157.748 43.3402L157.69 43.2179C157.622 43.0912 157.522 42.8408 157.438 42.5818C157.164 41.6449 157.191 40.9727 157.183 40.2719C157.186 39.5926 157.289 38.9651 157.373 38.3966C157.751 36.1213 158.449 34.7123 158.449 34.7123C158.449 34.7123 158.729 36.2407 159.076 38.398C159.151 38.9377 159.298 39.5105 159.407 40.0963C159.519 40.6576 159.74 41.3225 159.927 41.7039C160.177 42.2349 160.331 42.3155 160.893 42.6105C161.406 42.8869 162.129 43.1287 162.95 43.5417C163.367 43.7547 163.82 44.008 164.262 44.4282C164.702 44.8312 165.102 45.4386 165.231 46.0632C165.371 46.6791 165.302 47.2519 165.184 47.7441C165.06 48.1586 164.871 48.6062 164.666 48.9689C164.263 49.7288 163.753 50.326 163.224 50.8312C162.711 51.3479 162.177 51.7609 161.664 52.1106C159.617 53.5052 157.959 53.8866 157.959 53.8866Z" fill="#CD7755"/>
<path d="M149.7 56.1044C149.7 56.1044 152.272 60.4579 156.193 60.7659C160.118 61.0724 163.387 58.4934 163.387 58.4934" stroke="#C66661" stroke-width="1.5" stroke-miterlimit="10" stroke-linecap="round" stroke-linejoin="round"/>
<path d="M126.29 33.535C127.738 33.607 129.071 33.1191 130.225 32.4312C129.933 34.0819 130.622 35.7931 130.351 38.198C130.082 40.6 133.177 50.8513 130.365 50.7175C127.552 50.5851 122.75 34.9584 122.598 34.6734C124.158 33.5494 123.873 33.4112 126.29 33.535Z" fill="#934C32"/>
<path d="M134.741 1.99954C144.123 -0.662955 152.48 -0.488822 159.888 1.47567C166.946 3.34949 173.386 5.97313 174.756 8.50898C176.126 11.0448 175.16 16.6793 175.731 17.7313C176.937 19.9822 178.015 21.538 178.262 25.0784C178.514 28.6231 177.119 30.1457 177.119 30.1457C177.119 30.1457 174.786 22.1885 172.404 21.5437C170.028 20.9004 168.342 16.8807 168.342 16.8807C168.301 16.8491 164.615 22.2029 157.49 22.4562C150.364 22.7095 138.562 20.2024 137.066 20.2269C135.269 20.9177 132.003 27.2731 133.375 29.809C134.747 32.3448 130.91 38.9377 130.91 38.9377C130.91 38.9377 128.79 37.8915 127.074 36.4019C125.357 34.9138 123.957 36.6106 122.112 36.0435C120.269 35.4765 118.481 28.1179 117.91 20.2542C117.229 10.888 125.368 4.66204 134.741 1.99954Z" fill="#592221"/>
<path d="M173.922 50.316C170.983 49.9015 167.987 50.7132 164.629 52.2747C160.58 54.1601 158.258 53.8276 154.917 52.6475C151.579 51.4659 145.519 53.5657 142.71 54.6508C139.903 55.7345 140.31 56.7722 136.92 56.5578C133.531 56.3448 134.061 57.3061 132.776 54.0363C131.495 50.7679 131.383 50.0929 130.124 49.2366C128.866 48.3788 128.304 49.4942 128.304 49.4942C128.304 49.4942 128.913 53.203 130.359 57.4831C131.81 61.7633 134.503 60.0017 136.825 62.7837C139.142 65.5613 137.323 65.816 143.177 67.4078C149.03 68.9981 147.428 70.6042 155.049 71.6016C162.669 72.5975 164.018 71.7196 169.712 67.8137C175.408 63.9091 177.092 58.8101 177.459 55.5043C177.831 52.1984 176.972 50.7463 173.922 50.316ZM164.313 64.4344C159.799 66.4493 155.738 66.5903 151.585 65.2116C147.433 63.8329 146.121 60.2406 146.121 60.2406C146.121 60.2406 150.42 59.6419 153.441 58.066C156.463 56.4901 158.532 55.9792 158.532 55.9792C158.532 55.9792 162.859 57.0082 165.391 57.3349C167.923 57.6616 169.934 57.9149 169.934 57.9149C169.934 57.9149 168.828 62.4181 164.313 64.4344Z" fill="#592221"/>
<path d="M249.654 211.85C248.979 206.613 244.673 205.631 241.866 205.653C239.058 205.673 238.761 208.595 238.761 208.595C238.761 208.595 234.624 205.944 232.826 207.864C231.028 209.784 231.028 209.784 231.028 209.784C231.028 209.784 227.961 207.818 225.864 209.343C222.784 211.587 223.814 213.77 223.814 213.77C223.814 213.77 219.557 213.125 218.848 215.356C218.135 217.581 220.489 222.905 224.108 222.762C227.73 222.617 228.43 219.632 228.43 219.632C228.43 219.632 231.437 221.637 234.372 220.364C237.301 219.091 236.291 217.194 236.291 217.194C236.291 217.194 240.628 221.865 244.264 217.608C244.264 217.608 250.329 217.087 249.654 211.85Z" fill="#EFA06B"/>
<path d="M245.679 197.182C245.679 197.182 243.461 195.547 240.444 198.601C237.426 201.655 237.734 204.384 241.477 204.571C243.245 204.66 245.443 203.286 246.301 202.077C247.26 200.724 246.726 199.41 245.679 197.182Z" fill="#EFA06B"/>
<path d="M243.938 216.839C243.938 216.839 240.309 209.178 238.763 208.595" stroke="#CD7755" stroke-miterlimit="10"/>
<path d="M236.292 217.194C236.292 217.194 233.035 211.735 231.189 210.171" stroke="#CD7755" stroke-miterlimit="10"/>
<path d="M228.513 218.8C228.513 218.8 226.84 215.563 223.813 213.77" stroke="#CD7755" stroke-miterlimit="10"/>
<path d="M179.005 194.2C179.005 194.2 152.008 178.399 143.239 174.85C134.47 171.3 126.797 171.3 126.797 171.3L119.398 133.265L85.6912 141.379C85.6912 141.379 94.2318 188.396 107.014 195.092C119.791 201.795 175.801 211.439 175.801 211.439L179.005 194.2Z" fill="#EFA06B"/>
<path d="M209.621 214.189C210.511 211.574 208.063 211.879 203.94 211.267C204.277 211.267 204.919 211.252 204.919 211.252C204.919 211.252 211.444 212.073 212.581 207.923C213.997 202.798 208.76 204.798 203.666 204.39C203.341 204.365 203.005 204.321 202.652 204.257C203.72 204.305 204.744 204.322 205.655 204.29C210.777 204.144 213.115 202.342 212.902 200.698C212.266 195.795 209.494 197.838 204.397 197.431C202.334 197.267 199.667 196.283 197.228 195.17C198.046 194.799 199.202 194.515 200.487 194.995C204.703 196.56 208.931 193.963 207.937 191.84C206.942 189.721 200.23 185.349 192.702 186.672C185.172 187.99 178.232 185.739 173.258 191.559C168.967 196.582 167.018 202.201 168.668 207.596C169.87 211.528 178.212 215.995 184.003 217.187C187.187 218.479 190.873 219.884 194.181 220.392C199.348 221.184 201.806 221.286 203.19 219.929C204.574 218.571 203.922 217.865 202.688 217.029C202.716 217.029 202.748 217.023 202.778 217.031C205.481 217.224 208.726 216.808 209.621 214.189Z" fill="#EFA06B"/>
<path d="M194.049 201.681C194.049 201.681 198.557 203.532 203.668 204.389" stroke="#CD7755" stroke-miterlimit="10"/>
<path d="M190.372 208.077C190.372 208.077 197.973 211.704 204.92 211.252" stroke="#CD7755" stroke-miterlimit="10"/>
<path d="M187.862 213.449C187.862 213.449 194.281 217.606 202.777 217.033" stroke="#CD7755" stroke-miterlimit="10"/>
<path d="M193.138 193.422C193.138 193.422 197.489 196.286 202.396 197.477" stroke="#CD7755" stroke-miterlimit="10"/>
<path d="M113.369 98.0193C113.369 98.0193 120.77 128.447 120.496 132.504" stroke="#70578B" stroke-miterlimit="10"/>
<path d="M76.373 108.416C76.373 108.416 83.7736 138.843 83.4998 142.9" stroke="#70578B" stroke-miterlimit="10"/>
<path d="M343.654 490.296H186.394L168.247 286.013H361.799L343.654 490.296Z" fill="#549C90"/>
<path d="M258.23 390.396H238.541C236.905 390.396 236.055 390.012 235.925 389.848C235.83 389.65 235.897 388.777 236.713 387.466L242.425 378.315L244.304 379.321C244.565 379.461 244.859 379.532 245.154 379.532C245.447 379.532 245.741 379.461 246.002 379.321C246.526 379.039 246.851 378.521 246.851 377.961V363.598C246.851 363.036 246.526 362.517 246.002 362.237C245.738 362.096 245.447 362.027 245.153 362.027C244.86 362.027 244.566 362.097 244.305 362.237L230.863 369.416C230.338 369.698 230.014 370.217 230.014 370.778C230.014 371.34 230.338 371.859 230.863 372.14L232.742 373.144L227.033 382.295C224.261 386.739 223.968 391.376 226.244 395.014C228.512 398.655 232.997 400.742 238.544 400.742H258.234C259.171 400.742 259.931 400.039 259.931 399.172V391.97C259.927 391.1 259.168 390.396 258.23 390.396Z" fill="white"/>
<path d="M265.016 343.277C265.249 343.3 266.036 343.791 266.852 345.1L272.562 354.251L270.68 355.255C270.156 355.536 269.831 356.054 269.831 356.617C269.831 357.178 270.156 357.696 270.68 357.978L284.123 365.157C284.388 365.298 284.679 365.367 284.973 365.367C285.267 365.367 285.558 365.296 285.822 365.157C286.346 364.878 286.671 364.357 286.671 363.795V349.434C286.671 348.874 286.351 348.354 285.822 348.074C285.561 347.933 285.267 347.864 284.976 347.864C284.682 347.864 284.388 347.933 284.127 348.074L282.245 349.077L276.538 339.928C273.763 335.481 269.568 332.935 265.026 332.935C260.483 332.935 256.29 335.482 253.515 339.928L243.671 355.704C243.203 356.456 243.483 357.417 244.293 357.852L251.033 361.451C251.294 361.591 251.585 361.663 251.883 361.663C252.028 361.663 252.177 361.645 252.322 361.608C252.758 361.5 253.128 361.237 253.353 360.877L263.199 345.099C264.014 343.788 264.801 343.297 265.016 343.277Z" fill="white"/>
<path d="M303.017 382.293L293.171 366.517C292.855 366.012 292.285 365.73 291.7 365.73C291.411 365.73 291.117 365.799 290.852 365.941L284.113 369.542C283.722 369.751 283.436 370.095 283.321 370.496C283.203 370.898 283.267 371.33 283.49 371.688L293.333 387.464C294.153 388.774 294.22 389.649 294.129 389.836C293.991 390.01 293.142 390.395 291.505 390.395H280.089V388.387C280.089 387.824 279.767 387.306 279.238 387.024C278.978 386.884 278.683 386.814 278.392 386.814C278.098 386.814 277.806 386.884 277.543 387.024L264.101 394.206C263.577 394.488 263.25 395.007 263.25 395.569C263.25 396.128 263.577 396.648 264.101 396.93L277.54 404.11C277.804 404.251 278.095 404.322 278.389 404.322C278.681 404.322 278.975 404.251 279.238 404.11C279.764 403.831 280.089 403.313 280.089 402.749V400.74H291.505C297.052 400.74 301.535 398.653 303.807 395.014C306.081 391.375 305.788 386.738 303.017 382.293Z" fill="white"/>
<path d="M201.297 287.032L218.912 489.333" stroke="#3E7460" stroke-miterlimit="10"/>
<path d="M328.749 287.032L311.134 489.333" stroke="#3E7460" stroke-miterlimit="10"/>
<path d="M369.175 291.161C369.175 293.117 367.461 294.702 365.347 294.702H164.699C162.585 294.702 160.871 293.116 160.871 291.161V283.863C160.871 281.907 162.585 280.321 164.699 280.321H365.347C367.461 280.321 369.175 281.907 369.175 283.863V291.161Z" fill="#7CB1AC"/>
<path d="M561.791 490.296H404.532L386.385 286.013H579.934L561.791 490.296Z" fill="#A93E2F"/>
<path d="M476.366 390.396H456.675C455.04 390.396 454.19 390.012 454.059 389.848C453.966 389.65 454.033 388.777 454.848 387.466L460.561 378.315L462.439 379.321C462.701 379.461 462.995 379.532 463.289 379.532C463.581 379.532 463.877 379.461 464.136 379.321C464.662 379.039 464.986 378.521 464.986 377.961V363.598C464.986 363.036 464.662 362.517 464.136 362.237C463.873 362.096 463.58 362.027 463.286 362.027C462.993 362.027 462.701 362.097 462.439 362.237L448.998 369.416C448.47 369.698 448.147 370.217 448.147 370.778C448.147 371.34 448.47 371.859 448.998 372.14L450.877 373.144L445.167 382.295C442.395 386.739 442.103 391.376 444.377 395.014C446.643 398.655 451.13 400.742 456.675 400.742H476.366C477.304 400.742 478.063 400.039 478.063 399.172V391.97C478.063 391.1 477.304 390.396 476.366 390.396Z" fill="white"/>
<path d="M483.153 343.277C483.386 343.3 484.173 343.791 484.989 345.1L490.699 354.251L488.817 355.255C488.292 355.536 487.966 356.054 487.966 356.617C487.966 357.178 488.292 357.696 488.817 357.978L502.26 365.157C502.525 365.298 502.816 365.367 503.111 365.367C503.405 365.367 503.696 365.296 503.961 365.157C504.486 364.878 504.811 364.357 504.811 363.795V349.434C504.811 348.874 504.489 348.354 503.961 348.074C503.701 347.933 503.405 347.864 503.113 347.864C502.819 347.864 502.525 347.933 502.265 348.074L500.382 349.077L494.673 339.928C491.9 335.481 487.702 332.935 483.163 332.935C478.619 332.935 474.427 335.482 471.652 339.928L461.808 355.704C461.338 356.456 461.618 357.417 462.43 357.852L469.168 361.451C469.429 361.591 469.72 361.663 470.019 361.663C470.164 361.663 470.316 361.645 470.457 361.608C470.891 361.5 471.262 361.237 471.487 360.877L481.333 345.099C482.149 343.788 482.936 343.297 483.153 343.277Z" fill="white"/>
<path d="M521.152 382.293L511.307 366.517C510.991 366.012 510.422 365.73 509.835 365.73C509.546 365.73 509.254 365.799 508.988 365.941L502.25 369.542C501.858 369.751 501.572 370.095 501.457 370.496C501.338 370.898 501.402 371.33 501.626 371.688L511.469 387.464C512.287 388.774 512.355 389.649 512.265 389.836C512.128 390.01 511.276 390.395 509.643 390.395H498.224V388.387C498.224 387.824 497.901 387.306 497.375 387.024C497.112 386.884 496.82 386.814 496.526 386.814C496.232 386.814 495.941 386.884 495.675 387.024L482.235 394.206C481.708 394.488 481.384 395.007 481.384 395.569C481.384 396.128 481.708 396.648 482.235 396.93L495.674 404.11C495.94 404.251 496.229 404.322 496.523 404.322C496.817 404.322 497.109 404.251 497.375 404.11C497.898 403.831 498.224 403.313 498.224 402.749V400.74H509.643C515.187 400.74 519.672 398.653 521.943 395.014C524.216 391.375 523.924 386.738 521.152 382.293Z" fill="white"/>
<path d="M419.433 287.032L437.048 489.333" stroke="#842F22" stroke-miterlimit="10"/>
<path d="M546.885 287.032L529.272 489.333" stroke="#842F22" stroke-miterlimit="10"/>
<path d="M587.312 291.161C587.312 293.117 585.597 294.702 583.484 294.702H382.837C380.723 294.702 379.009 293.116 379.009 291.161V283.863C379.009 281.907 380.723 280.321 382.837 280.321H583.484C585.597 280.321 587.312 281.907 587.312 283.863V291.161Z" fill="#BB867C"/>
</svg>
